<svg id="Layer_1" data-name="Layer 1" xmlns="http://www.w3.org/2000/svg" viewBox="0 0 389.15 106.06"><defs><style>.cls-1{fill:#fff;}</style></defs><path class="cls-1" d="M115.51,385v9.86h-.84a1.36,1.36,0,0,1-1.33-1.46V383.8h1A1.21,1.21,0,0,1,115.51,385ZM126,386.34a2.81,2.81,0,0,0-2.38,1.3,3.07,3.07,0,0,0-2.52-1.3c-2.51,0-3.7,1.52-3.7,3.77v3.22a1.42,1.42,0,0,0,1.5,1.5h.55V390c0-1.14.6-1.78,1.41-1.78s1.53.59,1.53,2v3.2a1.38,1.38,0,0,0,1.5,1.5h.55v-4.94c0-1.13.57-1.72,1.41-1.72s1.52.59,1.52,2v3.2c0,1,.44,1.5,1.55,1.5h.52v-5A3.23,3.23,0,0,0,126,386.34Zm11.65,3.75V392a2.94,2.94,0,0,1-3.13,3h-.42c-2,0-3.33-1.12-3.33-2.64s1.08-2.6,4.14-2.6h.71v-.11c0-1.17-.55-1.51-1.77-1.51a3.34,3.34,0,0,0-2.64.95h-.07v-.66c0-.93.82-2,3-2C136,386.38,137.63,387.24,137.63,390.09Zm-2,1.14h-.73c-1.58,0-2,.36-2,1s.52,1,1.43,1a1.15,1.15,0,0,0,1.32-1.28Zm12-4.89a2.81,2.81,0,0,0-2.38,1.3,3.05,3.05,0,0,0-2.52-1.3c-2.51,0-3.7,1.52-3.7,3.77v3.22a1.42,1.42,0,0,0,1.5,1.5H141V390c0-1.14.61-1.78,1.41-1.78s1.54.59,1.54,2v3.2a1.37,1.37,0,0,0,1.5,1.5H146v-4.94c0-1.13.56-1.72,1.4-1.72s1.52.59,1.52,2v3.2c0,1,.44,1.5,1.56,1.5H151v-5A3.23,3.23,0,0,0,147.58,386.34Zm11.16,7a1.3,1.3,0,0,0,1.33,1.48H161v-9.09h2a1.4,1.4,0,0,0,1.32-1.25v-.69h-7.41a1.25,1.25,0,0,0-1.33,1.21v.73h3.18Zm5.36-6.82h-.39v4.71a3.5,3.5,0,0,0,3.66,3.77c2.4,0,3.62-1.32,3.62-3.89V388c0-1-.51-1.48-1.7-1.48h-.38v4.66c0,1.41-.59,2-1.45,2s-1.66-.6-1.66-2.14v-3C165.8,387,165.27,386.53,164.1,386.53Zm10.74,8.3v-4.76c0-1.26.51-1.77,1.42-1.77a3.26,3.26,0,0,1,1.21.24h.07v-.73c0-.63-.45-1.36-1.72-1.36a2.93,2.93,0,0,0-3,3.24v3.82c0,.86.58,1.32,1.5,1.32Zm10.18.05a1.26,1.26,0,0,0,1.39-1,3.44,3.44,0,0,1-1.59-1.08c-.74-.75-1.38-1.59-2-2.41a42.22,42.22,0,0,1,3.36-3.75v-.09H185a2.16,2.16,0,0,0-1.64.54,26.22,26.22,0,0,0-2.55,3v-4.94a1.24,1.24,0,0,0-1.4-1.37h-.66v9.61c0,1,.45,1.5,1.41,1.46l.65,0v-4a35.25,35.25,0,0,0,2.89,3.53A2,2,0,0,0,185,394.88Zm3.25-8.94a1.24,1.24,0,0,0,1.23-1.21,1.22,1.22,0,0,0-1.23-1.19,1.18,1.18,0,0,0-1.18,1.19A1.2,1.2,0,0,0,188.27,385.94Zm1.47,9c.87,0,1.22-.35,1.22-1.24v-.44h-.38c-.9,0-1.26-.26-1.26-1.1v-3.88a1.34,1.34,0,0,0-1.47-1.53h-.58v5.61A2.27,2.27,0,0,0,189.74,394.9Zm7.95-10.26v3a2.69,2.69,0,0,1,2.24-1.26c2.12,0,3.73,1.72,3.73,4.17s-1.61,4.5-4.12,4.5a4,4,0,0,1-3.91-4.22v-7.58h.71A1.26,1.26,0,0,1,197.69,384.64Zm0,5.85c0,1.91.81,2.69,2,2.69,1,0,1.78-1,1.78-2.32,0-2-.72-2.69-2-2.69A2.1,2.1,0,0,0,197.71,390.49Zm8.58-4.55a1.24,1.24,0,0,0,1.23-1.21,1.22,1.22,0,0,0-1.23-1.19,1.19,1.19,0,0,0-1.19,1.19A1.2,1.2,0,0,0,206.29,385.94Zm1.46,9c.88,0,1.23-.35,1.23-1.24v-.44h-.38c-.9,0-1.27-.26-1.27-1.1v-3.88a1.34,1.34,0,0,0-1.46-1.53h-.58v5.61A2.26,2.26,0,0,0,207.75,394.9Zm7.23-1.42a1.37,1.37,0,0,0,1.5,1.35h.57V390a3.65,3.65,0,0,0-7.3-.11v3.59a1.34,1.34,0,0,0,1.44,1.35h.61V390c0-1.19.62-1.87,1.5-1.87,1.06,0,1.68.62,1.68,2ZM228.7,392h-4.41c-.22.94-.42,1.89-.57,2.82h-.86c-.73,0-1-.38-1-1.06,0-1.59,2-8.09,3.75-10h.89a2.1,2.1,0,0,1,1.8,1,36.19,36.19,0,0,1,3.09,10h-.92a1.35,1.35,0,0,1-1.48-1.06C228.88,393,228.81,392.49,228.7,392Zm-.51-1.75a19.62,19.62,0,0,0-1.7-4.43,18.76,18.76,0,0,0-1.71,4.43Zm6.07-5.62v3a2.68,2.68,0,0,1,2.23-1.26c2.12,0,3.73,1.72,3.73,4.17s-1.61,4.5-4.11,4.5a4,4,0,0,1-3.92-4.22v-7.58h.72A1.26,1.26,0,0,1,234.26,384.64Zm0,5.85c0,1.91.8,2.69,2,2.69,1,0,1.77-1,1.77-2.32,0-2-.71-2.69-2-2.69A2.09,2.09,0,0,0,234.28,390.49Zm15,.52c0,2.41-1.13,4-4,4a4,4,0,0,1-3.84-4.17c0-2.72,1.32-4.5,3.73-4.5a2.38,2.38,0,0,1,2,1.32v-4.45h.64a1.27,1.27,0,0,1,1.41,1.41Zm-2.06-.1c0-2.08-.92-2.83-2-2.83s-1.73,1-1.73,2.36c0,1.72.89,2.83,2.08,2.83S247.19,392.41,247.19,390.91Zm4.22-4.38H251v4.71a3.5,3.5,0,0,0,3.66,3.77c2.39,0,3.62-1.32,3.62-3.89V388c0-1-.52-1.48-1.7-1.48h-.39v4.66c0,1.41-.58,2-1.44,2s-1.67-.6-1.67-2.14v-3C253.11,387,252.58,386.53,251.41,386.53Zm12.77,7.13v-.44h-.55c-1,0-1.41-.26-1.41-1.1v-7a1.3,1.3,0,0,0-1.46-1.39h-.59v8.56a2.33,2.33,0,0,0,2.62,2.58C263.7,394.9,264.18,394.55,264.18,393.66Zm3.2,1.24c.91,0,1.39-.35,1.39-1.24v-.44h-.55c-1,0-1.41-.26-1.41-1.1v-7a1.3,1.3,0,0,0-1.46-1.39h-.59v8.56A2.33,2.33,0,0,0,267.38,394.9Zm6.6-5.16v-.11c0-1.17-.55-1.51-1.78-1.51a3.31,3.31,0,0,0-2.63.95h-.07v-.66c0-.93.82-2,3-2,1.84,0,3.51.86,3.51,3.71V392a2.94,2.94,0,0,1-3.13,3h-.42c-2,0-3.33-1.12-3.33-2.64s1.08-2.6,4.13-2.6Zm-.72,1.49c-1.57,0-2,.36-2,1s.51,1,1.43,1A1.15,1.15,0,0,0,274,392v-.78Zm8.07-4.89a2.31,2.31,0,0,0-1.79,1.12v-2.38c0-.77-.48-1.32-1.47-1.32h-.64v9.68a1.25,1.25,0,0,0,1.41,1.39h.68v-4.7c0-1.46.84-2,1.5-2,.9,0,1.63.55,1.63,1.9v3.37a1.28,1.28,0,0,0,1.41,1.39h.67V390C284.73,387.62,283.47,386.34,281.33,386.34Zm11.74,4.21c-.5-.07-.88-.15-1.1-.15v4.43h-.71a1.37,1.37,0,0,1-1.5-1.48v-9.24a11.94,11.94,0,0,1,2.83-.4h1.84c2.19,0,3.62,1.32,3.62,3.16a2.85,2.85,0,0,1-2.27,2.93,3,3,0,0,1,1.37,1.55l.88,2.07a5.52,5.52,0,0,0,.68,1.13c-.26.28-.46.35-1.06.35a1.59,1.59,0,0,1-1.61-1l-.83-2A2.35,2.35,0,0,0,293.07,390.55Zm-1.1-1.92a16.72,16.72,0,0,0,2.18.09,1.5,1.5,0,0,0,1.67-1.48c0-1.34-.68-1.63-1.65-1.63h-1.23a4.89,4.89,0,0,0-1,.11Zm14.8,1.92c0,2.49-1.42,4.46-4.09,4.46a3.91,3.91,0,0,1-3.92-4.17c0-2.49,1.43-4.5,4.1-4.5A3.94,3.94,0,0,1,306.77,390.55Zm-2.14.29c0-1.66-.6-2.65-1.95-2.65-1.19,0-1.8,1-1.8,2.36,0,1.65.61,2.61,2,2.61C304.05,393.16,304.63,392.2,304.63,390.84Zm10.09-3.35c0-.67-.31-1-1-1h-.9a23.06,23.06,0,0,1-1.61,5.76,18.32,18.32,0,0,1-1.65-4.8,1.21,1.21,0,0,0-1.2-1h-1.1a26.61,26.61,0,0,0,2.94,7.71c-.45,1.21-.71,1.49-1.46,1.52l-1.17.08v.4a1.35,1.35,0,0,0,1.45,1.28c1.49,0,2.3-.84,3.84-4.47A31.92,31.92,0,0,0,314.72,387.49Zm7.24,2.6V392a2.94,2.94,0,0,1-3.13,3h-.42c-2,0-3.32-1.12-3.32-2.64s1.07-2.6,4.13-2.6h.71v-.11c0-1.17-.55-1.51-1.77-1.51a3.34,3.34,0,0,0-2.64.95h-.07v-.66c0-.93.82-2,3-2C320.3,386.38,322,387.24,322,390.09Zm-2,1.14h-.73c-1.57,0-2,.36-2,1s.51,1,1.42,1A1.15,1.15,0,0,0,320,392Zm4-7.47h-.59v8.56A2.33,2.33,0,0,0,326,394.9c.91,0,1.39-.35,1.39-1.24v-.44h-.55c-1,0-1.41-.26-1.41-1.1v-7A1.3,1.3,0,0,0,324,383.76Zm15.89,11.07h.86v-9.75a1.31,1.31,0,0,0-1.21-1.28h-1v7.61c-.14-.39-.44-1-.66-1.48L336,386.05a3.37,3.37,0,0,0-3.12-2.25h-1.1v9.58a1.35,1.35,0,0,0,1.33,1.45H334v-8.12a8.06,8.06,0,0,1,.73,1.3l2,3.91C338.08,394.57,339,394.83,339.87,394.83Zm5.95.15h-.43c-2,0-3.32-1.12-3.32-2.64s1.07-2.6,4.13-2.6h.71v-.11c0-1.17-.55-1.51-1.77-1.51a3.35,3.35,0,0,0-2.64.95h-.07v-.66c0-.93.82-2,3-2,1.85,0,3.51.86,3.51,3.71V392A2.93,2.93,0,0,1,345.82,395Zm-.21-1.69a1.15,1.15,0,0,0,1.32-1.28v-.78h-.73c-1.57,0-2,.36-2,1S344.7,393.29,345.61,393.29Zm9.46-.49H355a2.86,2.86,0,0,1-1.48.29c-.83,0-1.3-.42-1.3-1.48v-3.26h1.63c.86,0,1.24-.54,1.24-1v-.85H352.2v-1.87h-.49c-.79,0-1.56,1.11-1.56,2.21v5a2.76,2.76,0,0,0,3.09,3.07c1.21,0,1.83-.53,1.83-1.39Zm1.55-6.27h-.38v4.71a3.5,3.5,0,0,0,3.65,3.77c2.4,0,3.63-1.32,3.63-3.89V388c0-1-.52-1.48-1.71-1.48h-.38v4.66c0,1.41-.58,2-1.44,2s-1.67-.6-1.67-2.14v-3C358.32,387,357.79,386.53,356.62,386.53Zm10.74,8.3v-4.76c0-1.26.51-1.77,1.42-1.77a3.26,3.26,0,0,1,1.21.24h.07v-.73c0-.63-.45-1.36-1.72-1.36a2.93,2.93,0,0,0-3,3.24v3.82c0,.86.59,1.32,1.5,1.32Zm6.86-3.26h-1.35a2.16,2.16,0,0,0,2.32,1.7,3.72,3.72,0,0,0,2.54-.78h.08v.66c0,1.06-.72,1.86-3,1.86a4.09,4.09,0,0,1-4.06-4.17c0-2.76,1.68-4.5,4-4.5a3.23,3.23,0,0,1,3.33,3.22C378.12,391.08,377,391.57,374.22,391.57Zm-.44-1.46c2,0,2.4-.22,2.4-.8,0-.83-.62-1.25-1.57-1.25a1.79,1.79,0,0,0-1.74,1.78v.27ZM121.92,413.54a6.18,6.18,0,0,0,.67,1.14c-.25.27-.45.34-1.06.34a1.6,1.6,0,0,1-1.61-1l-.82-2c-.49-1.21-1.88-1.3-2.45-1.39s-.88-.15-1.1-.15V415h-.71a1.37,1.37,0,0,1-1.5-1.48v-9.24a11.94,11.94,0,0,1,2.83-.4h2.14c2.2,0,3.63,1.32,3.63,3.16a2.85,2.85,0,0,1-2.27,2.93,3.08,3.08,0,0,1,1.37,1.55Zm-2.22-6.18c0-1.34-.67-1.63-1.64-1.63h-1.54a4.89,4.89,0,0,0-1,.11v2.91a21.94,21.94,0,0,0,2.49.09A1.49,1.49,0,0,0,119.7,407.36Zm7.39,4.33h-1.65c.16,1.05,1.42,1.71,2.62,1.71a3.77,3.77,0,0,0,2.55-.79h.07v.66c0,1.06-.71,1.86-3,1.86a4.34,4.34,0,0,1-4.37-4.17,4.29,4.29,0,0,1,4.35-4.5,3.23,3.23,0,0,1,3.33,3.22C131,411.2,129.84,411.69,127.09,411.69Zm-.74-1.46c2,0,2.7-.22,2.7-.8,0-.83-.62-1.25-1.57-1.25a2.08,2.08,0,0,0-2,1.78v.27Zm9.77-.24c-1.41-.22-1.67-.38-1.67-.82s.41-.91,1.67-.91a3.59,3.59,0,0,1,2.36.76h.09v-.78c0-.81-.77-1.78-2.65-1.78-2.13,0-3.52,1.34-3.52,2.87,0,1.27.85,2,2.6,2.22,1.43.2,1.72.42,1.72.89,0,.63-.49.92-1.52.92a4.24,4.24,0,0,1-2.48-.79h-.08v.94c0,.84,1.14,1.62,2.67,1.62,2.22,0,3.46-1,3.46-2.8C138.77,411,137.84,410.29,136.12,410Zm7.88,1.7h-1.66c.17,1.05,1.42,1.71,2.63,1.71a3.74,3.74,0,0,0,2.54-.79h.08v.66c0,1.06-.72,1.86-3,1.86a4.34,4.34,0,0,1-4.37-4.17,4.29,4.29,0,0,1,4.35-4.5,3.23,3.23,0,0,1,3.33,3.22C147.9,411.2,146.75,411.69,144,411.69Zm-.44-1.46c2,0,2.4-.22,2.4-.8,0-.83-.62-1.25-1.57-1.25a2.1,2.1,0,0,0-2,1.78v.27Zm9-3.66a2.93,2.93,0,0,0-3.06,3.24v3.82c0,.86.59,1.32,1.5,1.32h.57v-4.76c0-1.26.51-1.77,1.43-1.77a3.2,3.2,0,0,1,1.2.24h.08v-.73C154.26,407.3,153.8,406.57,152.54,406.57Zm10.4.08h-.88a20.67,20.67,0,0,1-2.11,5.83,17.79,17.79,0,0,1-1.9-4.85,1.27,1.27,0,0,0-1.23-1h-1.09a20.27,20.27,0,0,0,2.7,7.57,2,2,0,0,0,1.66.82h.71a22.45,22.45,0,0,0,3.11-7.41C163.91,407,163.64,406.65,162.94,406.65Zm5.47,5h-1.35a2.16,2.16,0,0,0,2.32,1.71,3.74,3.74,0,0,0,2.54-.79H172v.66c0,1.06-.71,1.86-3,1.86a4.09,4.09,0,0,1-4.06-4.17c0-2.76,1.69-4.5,4-4.5a3.22,3.22,0,0,1,3.32,3.22C172.3,411.2,171.15,411.69,168.41,411.69Zm-.44-1.46c2,0,2.4-.22,2.4-.8,0-.83-.63-1.25-1.58-1.25a1.79,1.79,0,0,0-1.73,1.78v.27Zm19.14-1c0,3.35-2.2,5.78-5.07,5.78H180.5c-1.87,0-3.06-.73-3.06-2.43v-8.3a10,10,0,0,1,2.73-.43h1.74A5.06,5.06,0,0,1,187.11,409.26Zm-2.25.31c0-2.47-1.37-3.82-3.27-3.82H180.5a6.45,6.45,0,0,0-.84.11v6.33c0,.64.9.93,1.71.93h.38A3.27,3.27,0,0,0,184.86,409.57Zm7.16,2.12h-1.66c.16,1.05,1.42,1.71,2.63,1.71a3.74,3.74,0,0,0,2.54-.79h.07v.66c0,1.06-.71,1.86-3,1.86a4.33,4.33,0,0,1-4.36-4.17,4.28,4.28,0,0,1,4.34-4.5,3.23,3.23,0,0,1,3.33,3.22C195.91,411.2,194.76,411.69,192,411.69Zm-.75-1.46c2,0,2.7-.22,2.7-.8,0-.83-.62-1.25-1.57-1.25a2.08,2.08,0,0,0-2,1.78v.27Zm12.86-3.58h-.88a20.37,20.37,0,0,1-2.11,5.83,18.12,18.12,0,0,1-1.9-4.85,1.26,1.26,0,0,0-1.22-1h-1.1a20.11,20.11,0,0,0,2.71,7.57,2.53,2.53,0,0,0,2,.82h.4a22.45,22.45,0,0,0,3.11-7.41C205.1,407,204.83,406.65,204.13,406.65Zm5.78,5h-1.66c.16,1.05,1.42,1.71,2.63,1.71a3.74,3.74,0,0,0,2.54-.79h.07v.66c0,1.06-.71,1.86-3,1.86a4.33,4.33,0,0,1-4.36-4.17,4.28,4.28,0,0,1,4.34-4.5,3.23,3.23,0,0,1,3.33,3.22C213.8,411.2,212.65,411.69,209.91,411.69Zm-.75-1.46c2,0,2.7-.22,2.7-.8,0-.83-.62-1.25-1.57-1.25a2.08,2.08,0,0,0-2,1.78v.27Zm8.37,2v-7a1.3,1.3,0,0,0-1.46-1.39h-.59v8.56A2.33,2.33,0,0,0,218.1,415c.91,0,2.3-.34,2.3-1.24v-.44h-.55C218.88,413.34,217.53,413.08,217.53,412.24Zm11.83-1.57c0,2.49-1.42,4.46-4.09,4.46a3.91,3.91,0,0,1-3.92-4.17c0-2.48,1.43-4.5,4.1-4.5A3.94,3.94,0,0,1,229.36,410.67Zm-2.14.29c0-1.66-.6-2.65-1.95-2.65-1.19,0-1.8,1-1.8,2.36,0,1.65.61,2.62,2,2.62C226.64,413.29,227.22,412.32,227.22,411Zm11.67-.4c0,2.65-1.32,4.57-3.73,4.57a2.42,2.42,0,0,1-2.09-1.22v3.66h-.64a1.41,1.41,0,0,1-1.44-1.43v-5c0-2.76,1.22-4.67,4.13-4.67A4,4,0,0,1,238.89,410.56Zm-2.12.53c0-2-.64-2.8-2-2.8-1.14,0-1.78,1-1.78,2.42,0,1.66.83,2.59,2.05,2.59C236.07,413.3,236.77,412.41,236.77,411.09Zm13.88-4.63c-1,0-2.82.53-3.29,1.3a4.36,4.36,0,0,0-3.14-1.3c-2.5,0-3.69,1.52-3.69,3.77v3.22A1.42,1.42,0,0,0,242,415h.55v-4.88c0-1.14.6-1.78,1.41-1.78a2,2,0,0,1,2.14,2v3.2a1.38,1.38,0,0,0,1.5,1.5h.55V410c0-1.13,1.48-1.72,2.32-1.72s1.52.59,1.52,2v3.2c0,1,.44,1.5,1.56,1.5h.51v-5A3.24,3.24,0,0,0,250.65,406.46Zm8.23,5.23h-1.35a2.16,2.16,0,0,0,2.32,1.71,3.74,3.74,0,0,0,2.54-.79h.08v.66c0,1.06-.72,1.86-3,1.86a4.08,4.08,0,0,1-4.06-4.17c0-2.76,1.68-4.5,4-4.5a3.23,3.23,0,0,1,3.33,3.22C262.78,411.2,261.62,411.69,258.88,411.69Zm-.44-1.46c2,0,2.4-.22,2.4-.8,0-.83-.62-1.25-1.57-1.25a1.8,1.8,0,0,0-1.74,1.78v.27Zm10.26-3.77c-2.58,0-4.34,1.81-4.34,3.55v3.59a1.34,1.34,0,0,0,1.45,1.35h.6v-4.79a2.07,2.07,0,0,1,2.11-1.87c1.06,0,1.68.62,1.68,2v3.3a1.37,1.37,0,0,0,1.5,1.35h.57v-4.83A3.45,3.45,0,0,0,268.7,406.46Zm7.3-1.68h-.49c-.79,0-1.56,1.12-1.56,2.21v5A2.76,2.76,0,0,0,277,415c1.21,0,2.14-.53,2.14-1.39v-.73h-.09a2.89,2.89,0,0,1-1.48.29,1.44,1.44,0,0,1-1.61-1.48v-3.25h1.94a1.1,1.1,0,0,0,1.24-1v-.86H276Zm14.73.17a35.34,35.34,0,0,1,3.09,10h-.91a1.35,1.35,0,0,1-1.48-1.06c-.11-.73-.18-1.28-.29-1.76h-4.72c-.22.94-.42,1.89-.56,2.82h-1.17c-.73,0-1-.38-1-1.06,0-1.59,1.85-8.08,3.55-10h1.62A2.23,2.23,0,0,1,290.73,405Zm-.11,5.43A19.62,19.62,0,0,0,289,406s-.65,0-.65,0-1,2.89-1.39,4.43Zm10-3.73h-.39v4.66c0,1.41-.58,2-1.44,2s-1.67-.6-1.67-2.14v-3c0-1-.53-1.48-1.7-1.48H295v4.72a3.5,3.5,0,0,0,3.66,3.76c2.39,0,3.62-1.31,3.62-3.89v-3.11C302.3,407.16,301.79,406.65,300.6,406.65Zm5.61-1.87h-.49c-.79,0-1.55,1.12-1.55,2.21v5a2.75,2.75,0,0,0,3.09,3.07c1.2,0,1.83-.53,1.83-1.39v-.73H309a2.86,2.86,0,0,1-1.48.29c-.82,0-1.3-.42-1.3-1.48v-3.25h1.63c.86,0,1.25-.55,1.25-1v-.86h-2.88Zm8.33,1.68a2.36,2.36,0,0,0-1.79,1.12V405.2c0-.77-.47-1.32-1.46-1.32h-.64v9.68a1.25,1.25,0,0,0,1.41,1.39h.67v-4.7c0-1.46.84-2,1.5-2,.9,0,1.63.55,1.63,1.9v3.37a1.28,1.28,0,0,0,1.41,1.39H318V410.1C318,407.74,316.68,406.46,314.54,406.46Zm13,4.21c0,2.49-1.43,4.46-4.1,4.46a3.9,3.9,0,0,1-3.91-4.17c0-2.48,1.42-4.5,4.09-4.5A4,4,0,0,1,327.58,410.67Zm-2.14.29c0-1.66-.6-2.65-2-2.65-1.19,0-1.79,1-1.79,2.36,0,1.65.6,2.62,2,2.62C324.85,413.29,325.44,412.32,325.44,411Zm6.82-4.39a2.93,2.93,0,0,0-3.06,3.24v3.82c0,.86.59,1.32,1.5,1.32h.57v-4.76c0-1.26.51-1.77,1.42-1.77a8,8,0,0,1,1.82.24h.08v-.73C334.59,407.3,333.52,406.57,332.26,406.57Zm6,5.67v-3.87a1.35,1.35,0,0,0-1.47-1.54h-.58v5.61a2.27,2.27,0,0,0,2.47,2.58c.87,0,1.53-.34,1.53-1.24v-.44h-.39C339,413.34,338.29,413.08,338.29,412.24Zm-1.05-6.18a1.24,1.24,0,0,0,1.23-1.21,1.22,1.22,0,0,0-1.23-1.19,1.19,1.19,0,0,0-1.19,1.19A1.2,1.2,0,0,0,337.24,406.06Zm10.91,1.36a27.49,27.49,0,0,0,2.8,6.95c-.46,1.2-.71,1.48-1.46,1.51l-1.17.08v.4a1.34,1.34,0,0,0,1.44,1.28c1.5,0,2.31-.84,3.84-4.46a31.69,31.69,0,0,0,1.83-5.56c0-.68-.31-1-1-1h-.89a23.94,23.94,0,0,1-1.61,5.76,17.89,17.89,0,0,1-1.65-4.79,1.21,1.21,0,0,0-1.21-1H348Zm-1.52-.77h-3.18v-1.87H343c-.79,0-1.56,1.12-1.56,2.21v5a2.76,2.76,0,0,0,3.09,3.07c1.21,0,2.14-.53,2.14-1.39v-.73h-.09a4.3,4.3,0,0,1-1.79.29c-.82,0-1.3-.42-1.3-1.48v-3.25h1.63c.86,0,1.55-.55,1.55-1Z" transform="translate(-111.42 -324.67)"/><path class="cls-1" d="M112.91,351.68l.21,0c2.19,0,2.65-1.9,3.09-2.58a3.58,3.58,0,0,0,1.71.42c2.42,0,3.72-1.78,3.72-4a3.57,3.57,0,0,0-3.55-3.81c-2.41,0-3.7,1.82-3.7,4.05,0,.51.07,1.18.07,1.82,0,1.18-.26,2.29-1.73,2.29h-1.31v.51C111.42,351.22,111.88,351.66,112.91,351.68Zm5-8.44c1.29,0,1.88.94,1.88,2.51,0,1.31-.55,2.25-1.71,2.25-1.31,0-1.88-.94-1.88-2.49C116.21,344.18,116.78,343.24,117.92,343.24Zm42.18,5v-.54h2.1v-9.8h1a1.2,1.2,0,0,1,1.18,1.05v8.75h2c.88-.07,1.19-.55,1.19-1.38v-8.44h.67a1.3,1.3,0,0,1,1.45,1.46v7.07a3,3,0,0,1-3.13,3.13h-4.84C160.58,349.54,160.1,349.1,160.1,348.24Zm11.94-.12V338H173a1.17,1.17,0,0,1,1.17,1.05v10.53h-.84A1.27,1.27,0,0,1,172,348.12Zm64.1,1.4a3.67,3.67,0,0,0,2.58-1.06,3.69,3.69,0,0,0,2.67,1.06,3.54,3.54,0,0,0,3.54-3.77c0-2.23-1.31-4-3.7-4a3.57,3.57,0,0,0-3.56,3.73c0,1.64-.48,2.25-2.17,2.25h-1c-.34-2.71-1.7-6-4.88-6-2.67,0-3.74,1.07-3.74,2.31v.7a5.35,5.35,0,0,1,3.33-1.16c2.23,0,3.09,2.94,3.39,4.12H206.29c-1.54,0-2.13-.53-2.13-1.93,0-2.23-1.31-4-3.71-4a3.56,3.56,0,0,0-3.55,3.74c0,1.52-.43,2.13-1.83,2.21-1.14-.08-1.56-.65-1.63-1.84v-2.47a1.27,1.27,0,0,0-1.44-1.43h-.66v4.38c0,.85-.33,1.31-1.2,1.38H187.8l0-1.58c0-2.14-1-4.4-3.63-4.4-2.41,0-3.7,1.82-3.7,4,0,3.29,3,3.74,5.23,3.79,1.12-.05,4.59,0,4.59,0a3.37,3.37,0,0,0,2.3-.86,3.27,3.27,0,0,0,1.93.81c.21,0,.62,0,.83,0a3.52,3.52,0,0,0,2.58-1,3.62,3.62,0,0,0,2.67,1.07,3.41,3.41,0,0,0,2.51-1,3.75,3.75,0,0,0,2.87,1Zm5.25-6.26c1.13,0,1.7.94,1.7,2.25,0,1.55-.56,2.47-1.86,2.47-1.15,0-1.72-.92-1.72-2.23C239.51,344.2,240.08,343.26,241.39,343.26Zm-40.77,0c1.12,0,1.7.92,1.7,2.25,0,1.55-.56,2.47-1.87,2.47-1.16,0-1.73-.92-1.73-2.23C198.72,344.2,199.31,343.28,200.62,343.28Zm-16.59,0c1.76,0,2,1.57,2,3.11,0,.47,0,.93,0,1.33-1.22,0-3.67.26-3.67-2.17C182.31,344.2,182.88,343.26,184,343.26Zm-2.83-3.91a1,1,0,0,1,1-1,1.05,1.05,0,1,1,0,2.1A1,1,0,0,1,181.2,339.35Zm3.08,0a1.06,1.06,0,1,1,1.05,1.06A1.05,1.05,0,0,1,184.28,339.35Zm5.8,13.75a1.06,1.06,0,1,1,1-1.07A1.06,1.06,0,0,1,190.08,353.1Zm3-2.12a1.06,1.06,0,1,1,0,2.12,1.06,1.06,0,0,1,0-2.12Zm62-1.44v.72a2.52,2.52,0,0,1-2.58,2.51c-.9,0-1.51-.41-1.51-1.13v-.77a6.88,6.88,0,0,0,.75.07c1.49,0,1.29-1.25,1.29-3.24v-5.79h.79c1,0,1.37.42,1.37,1.47v4.28c.11,0,8.65,0,8.65,0,.84-.09,1.18-.55,1.18-1.4v-4.37h.68a1.27,1.27,0,0,1,1.42,1.45v3a3,3,0,0,1-3.12,3.13Zm12.27,2.51a1.08,1.08,0,0,1-1.08,1.07,1.07,1.07,0,0,1-1-1.07,1,1,0,0,1,1-1.05A1.06,1.06,0,0,1,267.35,352.05Zm-3,0a1.06,1.06,0,1,1-2.12,0,1.06,1.06,0,0,1,2.12,0Zm51.61-2.51a2.94,2.94,0,0,0,3.11-3.13v-3a1.27,1.27,0,0,0-1.42-1.45h-.68v4.37c0,.85-.33,1.31-1.18,1.4H311.2c0-.15,0-.37,0-.53,0-3.12-1.12-5.35-4.13-5.44-3.49-.09-6.5,3-7.17,3.88v-6.35c0-1-.4-1.36-1.41-1.36h-.41c0,.61,0,9.38,0,9.38l-.38.42H276.51l0-1.39c0-2-.83-4.38-3.63-4.38-2.41,0-3.7,1.81-3.7,4.05,0,3.28,3,3.53,5.23,3.56-.46.87-1.58,1.51-4.07,1.59v.66c0,.5.5.88,1.29.88,3.21,0,4.44-1.76,4.75-3.13Zm-9.17-6.27c2.41.11,2.65,2.26,2.65,3.79,0,.22,0,.44,0,.64h-9.45C301.21,346.26,303.67,343.34,306.75,343.27Zm-34,.21c2.28,0,1.86,2.36,1.95,4.22l-.94,0c-1.23,0-2.72.09-2.72-2C271,344.42,271.6,343.48,272.74,343.48ZM318,339.36a1,1,0,0,1,1-1.05,1.05,1.05,0,1,1,0,2.1A1,1,0,0,1,318,339.36Zm-3,0a1.06,1.06,0,0,1,2.12,0,1.06,1.06,0,0,1-2.12,0Zm15.28,10.2c1.12-.05,27.88,0,27.88,0a3.33,3.33,0,0,0,2.3-.86,3.72,3.72,0,0,0,2.21.83v0h1a3.33,3.33,0,0,0,2.3-.86,3.77,3.77,0,0,0,2.31.84v0h2.69c2.37,0,3-.18,3.64-.51.68.53,1.55.51,3.39.51a8.27,8.27,0,0,0,.42-2.74c0-3.13-1.3-6.65-5.43-6.65-2.65,0-3,.94-3,2.16V343a3.42,3.42,0,0,1,2.58-1c3,0,4,2.58,4,4.57a5,5,0,0,1-.11,1.14H375l0-1.2c0-1.62-.74-3.31-2.75-3.31a2.52,2.52,0,0,0-2.71,2.63,2.77,2.77,0,0,0,.76,1.88h-1.71c-1.38,0-1.86-.57-1.94-1.86v-2.46a1.26,1.26,0,0,0-1.43-1.43h-.67v4.37c0,.85-.33,1.31-1.19,1.38h-.24c-1.42,0-1.86-.57-1.94-1.86v-2.46a1.26,1.26,0,0,0-1.43-1.43h-.67v4.37c0,.85-.33,1.31-1.19,1.38H332.31l0-1.58c0-2.14-1-4.4-3.63-4.4-2.41,0-3.7,1.82-3.7,4C325,349.06,328,349.51,330.23,349.56Zm42-5c1.45,0,1.31,1.92,1.31,3.15-2.47,0-2.45-1.53-2.45-1.64C371.08,345.18,371.46,344.55,372.22,344.55Zm-43.69-1.29c1.77,0,2,1.57,2,3.11,0,.47,0,.93,0,1.33-1.21,0-3.66.26-3.66-2.17C326.82,344.2,327.39,343.26,328.53,343.26Zm.26-3.91a1.06,1.06,0,1,1,1,1.06A1.05,1.05,0,0,1,328.79,339.35Zm-3.08,0a1,1,0,0,1,1-1,1.05,1.05,0,1,1,0,2.1A1,1,0,0,1,325.71,339.35ZM363.35,351a1.06,1.06,0,1,1-1.06,1A1.07,1.07,0,0,1,363.35,351Zm3,0a1.06,1.06,0,1,1,0,2.12,1.06,1.06,0,0,1,0-2.12Zm-250,8.13a1.05,1.05,0,1,1-1,1A1.05,1.05,0,0,1,116.36,359.11Zm5.87,11.31h.33a3.35,3.35,0,0,0,2.3-.87,3.89,3.89,0,0,0,2.55.86v0H160v0h2a3.68,3.68,0,0,0,2.58-.86,3.21,3.21,0,0,0,2.4.87h2.86a3.84,3.84,0,0,0,2.93-1.07,3.64,3.64,0,0,0,2.67,1.07,3.42,3.42,0,0,0,2.5-1,3.74,3.74,0,0,0,2.8,1h.67a3,3,0,0,0,3.15-3.13v-6.56a1.29,1.29,0,0,0-1.46-1.44h-.68v7.9c0,.83-.31,1.31-1.18,1.38h-.13c-1.55,0-2.14-.53-2.14-1.93,0-2.23-1.3-4-3.7-4a3.56,3.56,0,0,0-3.55,3.74c0,1.64-.48,2.22-2.18,2.22H167.3c-1.56,0-1.77-.51-1.86-1.86v-6a1.28,1.28,0,0,0-1.43-1.44h-.67v7.91a1.19,1.19,0,0,1-1.2,1.39H160a8.51,8.51,0,0,0-.56-3.13,4.63,4.63,0,0,0-4.21-2.59H134.64l3.92-2.79a.87.87,0,0,0,.31-.69,1,1,0,0,0-.18-.63l-.5-.65-5.86,4.11-.1.1a1.16,1.16,0,0,0-.12,1.36l.27.46a1.21,1.21,0,0,0,1,.6h21.94a2.31,2.31,0,0,1,1.79.71,4,4,0,0,1,1,3.14l-30.5,0v0c-1.38,0-1.86-.57-1.93-1.86v-2.35a1.27,1.27,0,0,0-1.44-1.44h-.66v4.27c0,.85-.33,1.31-1.2,1.38h-3.56l0-1.58c0-2.14-1-4.4-3.63-4.4-2.42,0-3.71,1.82-3.71,4.05,0,3.3,3,3.74,5.24,3.8C117.87,370.38,122.34,370.44,122.23,370.42Zm53.24-6.27c1.12,0,1.69.93,1.69,2.25,0,1.55-.55,2.47-1.86,2.47s-1.73-.92-1.73-2.23C173.57,365.08,174.16,364.15,175.47,364.15ZM117,368.57c-1.21,0-3.66.26-3.66-2.17,0-1.32.57-2.26,1.71-2.26,1.77,0,2,1.56,2,3.11C117,367.71,117,368.17,117,368.57Zm-3.74-9.46a1.05,1.05,0,1,1,0,2.1,1.05,1.05,0,0,1,0-2.1Zm9.07,12.75a1.06,1.06,0,1,1-1.07,1.05A1.06,1.06,0,0,1,122.33,371.86Zm3,0a1.06,1.06,0,1,1,0,2.12,1.06,1.06,0,0,1,0-2.12Zm63.41-1.44h-.85a1.28,1.28,0,0,1-1.27-1.42v-9.69h.94a1.18,1.18,0,0,1,1.18,1.05Zm22.73,0H212a3,3,0,0,0,3.15-3.13v-6.56a1.28,1.28,0,0,0-1.45-1.44h-.68v7.9c0,.83-.32,1.31-1.18,1.38h-.13c-1.57,0-1.77-.51-1.86-1.86v-6a1.28,1.28,0,0,0-1.44-1.44h-.66v7.91a1.19,1.19,0,0,1-1.2,1.39h-3.66l0-1.58a4.2,4.2,0,0,0-2.29-4.16v0a3.37,3.37,0,0,0-1.34-.26c-2.41,0-3.7,1.82-3.7,4.05,0,3.3,3,3.74,5.23,3.8,1.12-.06,6,0,5.93,0v0a3.37,3.37,0,0,0,2.28-.84,3.13,3.13,0,0,0,2.32.86h.08Zm-10.35-1.85c-1.22,0-3.67.26-3.67-2.17,0-1.32.57-2.26,1.71-2.26,1.77,0,2,1.56,2,3.11C201.12,367.71,201.11,368.17,201.11,368.57Zm17-9.26a1.18,1.18,0,0,1,1.18,1.05v10.06h-.85a1.28,1.28,0,0,1-1.27-1.42v-9.69Zm12.19,11.11h0a2.79,2.79,0,0,1-2.26-.74,2,2,0,0,1-1.37.74h-4.34a1,1,0,0,1-1-1.11v-.74h5.09a4,4,0,0,0-1.64-3.38,3.3,3.3,0,0,0-1.84-.56,5,5,0,0,0-.91.08l.37-.59a1.84,1.84,0,0,1,1.68-1,2.94,2.94,0,0,1,.79.11,3.92,3.92,0,0,1,1.95,1.19,6.72,6.72,0,0,1,1.29,2.47c.46,1.36.55,1.69,2.19,1.69H247c.86-.07,1.19-.53,1.19-1.38v-4.27h.67a1.27,1.27,0,0,1,1.43,1.44v2.35c.08,1.29.56,1.86,1.94,1.86h3.7a4,4,0,0,1-.46-1.95c0-2.23,1.29-4.05,3.7-4.05a2.92,2.92,0,0,1,3.06,2.19,2,2,0,0,1-.19.85l-.27.64a2.87,2.87,0,0,0-2.76-2.13c-1.13,0-1.7,1-1.7,2.26a2.46,2.46,0,0,0,.85,2.19h4.71v.83a1.07,1.07,0,0,1-1.06,1h-9.58v0h-.08a3.91,3.91,0,0,1-2.68-.89c-.74.72-1.74.89-3.26.89m3,1.33a1.05,1.05,0,0,1,1,1.06,1,1,0,0,1-1,1,1,1,0,0,1-1.05-1A1,1,0,0,1,249.24,371.77Zm25-9.95a1.06,1.06,0,0,1,1.08,1.06,1.07,1.07,0,0,1-1.08,1.07,1.05,1.05,0,0,1-1.05-1.07A1,1,0,0,1,274.25,361.82Zm20.81,6.75c.85-.09,1.18-.55,1.18-1.39v-4.27h.68a1.27,1.27,0,0,1,1.42,1.45v2.93a3,3,0,0,1-3.11,3.13H280.8a3.33,3.33,0,0,1-1.64-.32c-.51,1.86-1.8,3.73-5.12,3.87a4.83,4.83,0,0,1-5.39-5.23c.08-1.58.73-3,2-3h.84a3.82,3.82,0,0,0-1,2.75c0,2.46,1.51,3.65,3.26,3.62,2.15,0,3.61-1.14,3.61-5.06v-4.12H278a1.29,1.29,0,0,1,1.44,1.45V367c0,.18,0,.63,0,1.18a2.64,2.64,0,0,0,1.64.38h14Zm1.36,3.2a1.06,1.06,0,1,1,0,2.11,1,1,0,0,1-1-1.07A1,1,0,0,1,296.42,371.77Zm14,5a1.07,1.07,0,0,1-1.07-1.07,1.07,1.07,0,0,1,2.14,0A1.07,1.07,0,0,1,310.4,376.72Zm-3,0a1.05,1.05,0,0,1-1.05-1.07,1,1,0,0,1,1.05-1,1.05,1.05,0,0,1,1.07,1A1.08,1.08,0,0,1,307.39,376.72Zm9.86-6.3v-5.93c-3.11,0-3.58.8-3.63,4.38,0,2.56-.48,4.46-4.56,4.46-2,0-4.7-.7-4.7-4.5,0-1.9.91-3.43,2-3.42h1.33a3.3,3.3,0,0,0-1.47,3c0,1.73.42,3.21,2.57,3.21h.65c4.12.05,1.51-4.33,3.26-7.06.83-1.3,2.34-1.93,4.64-1.93h1.71v6h33.43a4,4,0,0,0-1-3.16,2.29,2.29,0,0,0-1.79-.71H327.82a1.17,1.17,0,0,1-1-.6l-.27-.46a1.16,1.16,0,0,1,.11-1.36l.11-.1,5.85-4.1.5.64a1,1,0,0,1,.19.63.9.9,0,0,1-.32.7L329,362.83h20.62a4.62,4.62,0,0,1,4.21,2.6,8.31,8.31,0,0,1,.57,3.14v1.85Zm43.87,0v.71a2.51,2.51,0,0,1-2.57,2.51c-.91,0-1.52-.41-1.52-1.12v-.78a5.75,5.75,0,0,0,.76.08c1.49,0,1.29-1.26,1.29-3.25v-5.68h.79c1,0,1.36.42,1.36,1.47v4.18c.11,0,13.83,0,13.83,0,.84-.09,1.18-.55,1.18-1.39v-4.27h.68a1.27,1.27,0,0,1,1.42,1.45v2.93a3,3,0,0,1-3.12,3.13Zm14.21-10.94a1.05,1.05,0,1,1-1.07,1A1,1,0,0,1,375.33,359.48Zm4.07,1a1.08,1.08,0,0,1-1.08,1.05,1.05,1.05,0,0,1,0-2.1A1.08,1.08,0,0,1,379.4,360.53Zm-21-20v-.64H359a1.83,1.83,0,0,1,0-.47,1.55,1.55,0,0,1,1.45-1.62,1.26,1.26,0,0,1,1.22.88l0,0-.55.78-.05-.14c-.16-.42-.39-.57-.77-.51-.21,0-.35.26-.36.57a.72.72,0,0,0,.14.47h1.65V341h-2.77A.51.51,0,0,1,358.4,340.48ZM161.43,353H162a1.83,1.83,0,0,1,0-.47,1.55,1.55,0,0,1,1.45-1.62,1.26,1.26,0,0,1,1.22.88l0,0-.55.78,0-.14c-.16-.42-.39-.57-.77-.51-.21,0-.35.26-.36.57a.72.72,0,0,0,.14.47h1.65v1.14h-2.77a.5.5,0,0,1-.51-.5Zm-6.32-11.25a3.56,3.56,0,0,0-3.55,3.73c0,1.64-.48,2.25-2.18,2.25h-23a1.12,1.12,0,0,1-1.17-1.05V339a1.14,1.14,0,0,0-1.17-1.07h-1v8.47a3,3,0,0,0,3.15,3.13l23.76,0a3.63,3.63,0,0,0,2.57-1.06,3.71,3.71,0,0,0,2.68,1.06,3.54,3.54,0,0,0,3.53-3.77C158.81,343.52,157.5,341.72,155.11,341.72Zm0,6.26c-1.14,0-1.71-.92-1.71-2.23,0-1.55.57-2.49,1.88-2.49,1.12,0,1.69.94,1.69,2.25C157,347.06,156.42,348,155.11,348Z" transform="translate(-111.42 -324.67)"/><path class="cls-1" d="M463.18,423.57a.63.63,0,0,1-.32-.08.67.67,0,0,1-.26-.91c1.62-2.92,2.1-5.6,1.45-8a5.9,5.9,0,0,1-.46,1.46,4.89,4.89,0,0,1-6.49,2.37,4,4,0,0,1-2-5.37,3.37,3.37,0,0,1,4.47-1.63,2.83,2.83,0,0,1,1.37,3.75.66.66,0,0,1-.88.33.67.67,0,0,1-.33-.89,1.5,1.5,0,0,0-.72-2,2.06,2.06,0,0,0-1.56-.07,2,2,0,0,0-1.14,1.06,2.71,2.71,0,0,0,1.31,3.59,3.56,3.56,0,0,0,4.72-1.72,4.58,4.58,0,0,0,.15-3.52,4.49,4.49,0,0,0-.51-1,8.31,8.31,0,0,0-1.93-1.62.68.68,0,0,1-.26-.89.66.66,0,0,1,.87-.3,5.83,5.83,0,0,1,2.46,2.12c2,2.34,4.11,6.66.61,13A.66.66,0,0,1,463.18,423.57Z" transform="translate(-111.42 -324.67)"/><path class="cls-1" d="M455.18,430.72a.66.66,0,0,1-.65-.78c.33-1.86,1.15-5.23,3-6.88a4.94,4.94,0,0,1,3.38-1.17,9,9,0,0,1,2.47.38.64.64,0,0,1,.47.52c.25,1.44.39,4.09-1.45,5.73h0c-1.83,1.63-5.27,2.08-7.16,2.2Zm5.72-7.5a3.6,3.6,0,0,0-2.49.84c-1.32,1.18-2.05,3.67-2.4,5.26,2.51-.26,4.49-.9,5.49-1.79,1.21-1.08,1.24-2.89,1.09-4.09A6.93,6.93,0,0,0,460.9,423.22ZM462,428Z" transform="translate(-111.42 -324.67)"/><path class="cls-1" d="M447.55,418.76a.67.67,0,0,1-.67-.67v-8a.67.67,0,0,1,1.34,0v8A.67.67,0,0,1,447.55,418.76Z" transform="translate(-111.42 -324.67)"/><path class="cls-1" d="M447.4,430.72a.68.68,0,0,1-.48-.19c-4.69-4.69-6-14.84-.85-20l.41-.39a11.32,11.32,0,0,0-11.5-.79.66.66,0,0,1-.89-.3.66.66,0,0,1,.3-.89,12.64,12.64,0,0,1,13.16,1.1,12.64,12.64,0,0,1,13.16-1.1.66.66,0,0,1,.3.89.66.66,0,0,1-.89.3,11.32,11.32,0,0,0-11.5.79l.41.39c5.07,5.07,3.6,15.24-1.16,20A.66.66,0,0,1,447.4,430.72Zm.15-19.75-.53.5a11.69,11.69,0,0,0-2.9,9,14.59,14.59,0,0,0,3.28,8.59,15.23,15.23,0,0,0,3.43-8.6c.29-3.68-.71-7-2.75-9Z" transform="translate(-111.42 -324.67)"/><path class="cls-1" d="M431.91,423.57a.66.66,0,0,1-.58-.34c-3.5-6.32-1.43-10.64.61-13a5.91,5.91,0,0,1,2.45-2.11.67.67,0,0,1,.62,1.19,8.52,8.52,0,0,0-1.86,1.53,4.6,4.6,0,0,0-.43,4.61,3.56,3.56,0,0,0,4.72,1.72,2.71,2.71,0,0,0,1.31-3.59,2,2,0,0,0-1.14-1.06,2.06,2.06,0,0,0-1.56.07,1.5,1.5,0,0,0-.72,2,.67.67,0,0,1-.33.89.66.66,0,0,1-.88-.33,2.83,2.83,0,0,1,1.37-3.75A3.37,3.37,0,0,1,440,413a4,4,0,0,1-2,5.37,4.88,4.88,0,0,1-6.49-2.37,6,6,0,0,1-.46-1.46c-.54,2-.39,4.71,1.45,8a.68.68,0,0,1-.26.91A.67.67,0,0,1,431.91,423.57Z" transform="translate(-111.42 -324.67)"/><path class="cls-1" d="M439.92,430.72h-.05c-1.89-.12-5.33-.57-7.16-2.2h0c-1.84-1.64-1.7-4.29-1.45-5.73a.64.64,0,0,1,.47-.52,8.88,8.88,0,0,1,2.46-.38,5,5,0,0,1,3.39,1.17c1.83,1.65,2.66,5,3,6.88a.66.66,0,0,1-.65.78Zm-6.33-3.19c1,.89,3,1.53,5.5,1.79-.35-1.59-1.08-4.08-2.4-5.26a3.61,3.61,0,0,0-2.5-.84,6.85,6.85,0,0,0-1.68.22c-.15,1.2-.12,3,1.08,4.09Z" transform="translate(-111.42 -324.67)"/><path class="cls-1" d="M447.55,418.76a.67.67,0,0,1-.67-.67v-8a.67.67,0,0,1,1.34,0v8A.67.67,0,0,1,447.55,418.76Z" transform="translate(-111.42 -324.67)"/><path class="cls-1" d="M434.67,347.32a.71.71,0,0,1-.28-.06,5.91,5.91,0,0,1-2.43-2.09c-2-2.34-4.14-6.67-.63-13a.67.67,0,0,1,1.17.65c-1.84,3.31-2,6-1.45,8a6.25,6.25,0,0,1,.46-1.47A4.9,4.9,0,0,1,438,337a4,4,0,0,1,2,5.37,3.37,3.37,0,0,1-4.47,1.63,2.82,2.82,0,0,1-1.37-3.75.67.67,0,0,1,1.21.56,1.48,1.48,0,0,0,.72,2,2,2,0,0,0,1.55.07,2,2,0,0,0,1.15-1.05,2.7,2.7,0,0,0,.09-2.07,2.73,2.73,0,0,0-1.4-1.53,3.56,3.56,0,0,0-4.72,1.73,4.6,4.6,0,0,0,.43,4.61,8.88,8.88,0,0,0,1.86,1.53.66.66,0,0,1-.34,1.24Z" transform="translate(-111.42 -324.67)"/><path class="cls-1" d="M434.19,333.5a9.07,9.07,0,0,1-2.47-.37.67.67,0,0,1-.46-.53c-.25-1.43-.39-4.09,1.44-5.73h0c1.82-1.63,5.27-2.08,7.16-2.2a.67.67,0,0,1,.7.78c-.33,1.86-1.16,5.24-3,6.88A4.9,4.9,0,0,1,434.19,333.5ZM432.51,332a7.4,7.4,0,0,0,1.68.21,3.64,3.64,0,0,0,2.5-.83c1.32-1.19,2.05-3.67,2.4-5.27-2.52.26-4.49.9-5.5,1.8C432.39,329,432.36,330.75,432.51,332Z" transform="translate(-111.42 -324.67)"/><path class="cls-1" d="M447.55,346a.66.66,0,0,1-.67-.66v-8a.67.67,0,0,1,1.34,0v8A.66.66,0,0,1,447.55,346Z" transform="translate(-111.42 -324.67)"/><path class="cls-1" d="M455,348.58a12.68,12.68,0,0,1-7.48-2.45,12.65,12.65,0,0,1-13.17,1.1A.67.67,0,0,1,435,346a11.32,11.32,0,0,0,11.5-.79c-.14-.12-.27-.25-.41-.39-5.07-5.07-3.6-15.23,1.16-20a.66.66,0,0,1,.94,0c4.7,4.7,6,14.85.86,20-.14.14-.27.27-.41.39a11.32,11.32,0,0,0,11.5.79.66.66,0,0,1,.59,1.19A12.58,12.58,0,0,1,455,348.58Zm-7.33-22.27a15.09,15.09,0,0,0-3.43,8.61c-.3,3.68.7,7,2.74,9l.54.5.53-.5a11.69,11.69,0,0,0,2.9-9A14.68,14.68,0,0,0,447.7,326.31Z" transform="translate(-111.42 -324.67)"/><path class="cls-1" d="M460.42,347.32a.66.66,0,0,1-.33-1.24,8.89,8.89,0,0,0,1.87-1.55,4.78,4.78,0,0,0,.57-1.07,4.62,4.62,0,0,0-.15-3.52,3.56,3.56,0,0,0-4.72-1.73,2.71,2.71,0,0,0-1.31,3.6,2,2,0,0,0,2.7,1,1.49,1.49,0,0,0,.72-2,.67.67,0,0,1,1.21-.56,2.83,2.83,0,0,1-1.37,3.75,3.37,3.37,0,0,1-4.47-1.63,4,4,0,0,1,2-5.37,4.83,4.83,0,0,1,3.73-.15,4.77,4.77,0,0,1,2.75,2.52,6.13,6.13,0,0,1,.47,1.47c.54-2,.39-4.72-1.45-8a.67.67,0,0,1,.26-.91.68.68,0,0,1,.91.26c3.5,6.32,1.42,10.64-.61,13a5.88,5.88,0,0,1-2.46,2.11A.67.67,0,0,1,460.42,347.32Z" transform="translate(-111.42 -324.67)"/><path class="cls-1" d="M460.9,333.5a4.86,4.86,0,0,1-3.38-1.17c-1.84-1.64-2.66-5-3-6.88a.67.67,0,0,1,.15-.56.7.7,0,0,1,.54-.22c1.9.12,5.34.57,7.17,2.2h0c1.84,1.64,1.7,4.3,1.45,5.73a.67.67,0,0,1-.47.53A9,9,0,0,1,460.9,333.5ZM456,326.07c.35,1.6,1.08,4.08,2.4,5.26a3.56,3.56,0,0,0,2.49.84,7.49,7.49,0,0,0,1.69-.21c.15-1.21.12-3-1.09-4.09C460.5,327,458.52,326.33,456,326.07Z" transform="translate(-111.42 -324.67)"/><path class="cls-1" d="M447.55,346a.66.66,0,0,1-.67-.66v-8a.66.66,0,0,1,.67-.66.65.65,0,0,1,.66.66v8A.65.65,0,0,1,447.55,346Z" transform="translate(-111.42 -324.67)"/><path class="cls-1" d="M408.51,395.8a13.45,13.45,0,0,1-6.49-1.88.67.67,0,0,1,.64-1.17c3.31,1.84,6,2,8,1.45a5.92,5.92,0,0,1-1.46-.47,4.87,4.87,0,0,1-2.37-6.48,4,4,0,0,1,5.36-2,3.36,3.36,0,0,1,1.63,4.47,2.83,2.83,0,0,1-3.75,1.37.67.67,0,0,1-.32-.89.66.66,0,0,1,.88-.32,1.5,1.5,0,0,0,2-.73,2,2,0,0,0-1-2.69,2.72,2.72,0,0,0-3.6,1.31,3.55,3.55,0,0,0,1.73,4.71,4.53,4.53,0,0,0,3.52.15,4.35,4.35,0,0,0,1.07-.56,8.89,8.89,0,0,0,1.55-1.87.66.66,0,0,1,1.18.61,5.88,5.88,0,0,1-2.11,2.46A9.79,9.79,0,0,1,408.51,395.8Z" transform="translate(-111.42 -324.67)"/><path class="cls-1" d="M400.83,394.13a5.35,5.35,0,0,1-4.11-1.59h0c-1.63-1.83-2.08-5.28-2.2-7.17a.7.7,0,0,1,.22-.54.72.72,0,0,1,.56-.16c1.87.33,5.24,1.16,6.88,3a4.9,4.9,0,0,1,1.17,3.39,9,9,0,0,1-.37,2.47.67.67,0,0,1-.53.47A9.31,9.31,0,0,1,400.83,394.13Zm-3.11-2.48c1.08,1.21,2.88,1.24,4.09,1.09a7.49,7.49,0,0,0,.21-1.69,3.64,3.64,0,0,0-.83-2.5c-1.18-1.32-3.67-2.05-5.27-2.39C396.18,388.67,396.82,390.65,397.72,391.65Z" transform="translate(-111.42 -324.67)"/><path class="cls-1" d="M415.14,378.36h-8a.67.67,0,1,1,0-1.33h8a.67.67,0,1,1,0,1.33Z" transform="translate(-111.42 -324.67)"/><path class="cls-1" d="M416.49,391.23a.66.66,0,0,1-.3-.07.67.67,0,0,1-.29-.9,11.34,11.34,0,0,0-.79-11.5c-.13.14-.26.28-.4.41-5.07,5.08-15.23,3.61-20-1.16a.66.66,0,0,1,0-.94c4.69-4.69,14.84-6,20-.85.14.13.27.27.4.41a11.34,11.34,0,0,0,.79-11.5.65.65,0,0,1,.29-.89.67.67,0,0,1,.9.29A12.68,12.68,0,0,1,416,377.7a12.66,12.66,0,0,1,1.11,13.16A.68.68,0,0,1,416.49,391.23Zm-20.33-13.69a15.23,15.23,0,0,0,8.61,3.44c3.68.29,7-.71,9-2.75.18-.17.34-.35.5-.53-.16-.19-.32-.36-.5-.54-2.06-2.06-5.35-3.11-9-2.89A14.6,14.6,0,0,0,396.16,377.54Z" transform="translate(-111.42 -324.67)"/><path class="cls-1" d="M410.52,370.49a4.16,4.16,0,0,1-1.39-.25,4,4,0,0,1-2.27-2.09,4.88,4.88,0,0,1,2.37-6.49,5.9,5.9,0,0,1,1.46-.46c-2.05-.55-4.71-.39-8,1.44a.66.66,0,1,1-.64-1.16c6.32-3.5,10.64-1.43,13,.61a5.91,5.91,0,0,1,2.11,2.45.66.66,0,0,1-1.18.61,9.17,9.17,0,0,0-1.55-1.87,4.35,4.35,0,0,0-1.07-.56,4.57,4.57,0,0,0-3.52.15,3.55,3.55,0,0,0-1.73,4.71,2.72,2.72,0,0,0,1.53,1.41,2.75,2.75,0,0,0,2.07-.09,2,2,0,0,0,1-1.15,2,2,0,0,0-.06-1.55,1.48,1.48,0,0,0-.84-.77,1.53,1.53,0,0,0-1.15,0,.66.66,0,1,1-.56-1.2,2.84,2.84,0,0,1,2.16-.1,2.77,2.77,0,0,1,1.59,1.47,3.37,3.37,0,0,1-1.63,4.47A4,4,0,0,1,410.52,370.49Z" transform="translate(-111.42 -324.67)"/><path class="cls-1" d="M395.19,370.73a.67.67,0,0,1-.67-.71c.12-1.89.57-5.34,2.2-7.17h0c1.65-1.83,4.3-1.69,5.73-1.45a.69.69,0,0,1,.53.47,9,9,0,0,1,.37,2.47,4.9,4.9,0,0,1-1.17,3.39c-1.64,1.83-5,2.66-6.88,3Zm2.53-7c-.9,1-1.54,3-1.8,5.5,1.6-.35,4.09-1.08,5.27-2.4a3.64,3.64,0,0,0,.83-2.5,7.33,7.33,0,0,0-.21-1.68c-1.21-.15-3-.12-4.09,1.08Z" transform="translate(-111.42 -324.67)"/><path class="cls-1" d="M415.14,378.36h-8a.66.66,0,0,1-.67-.66.67.67,0,0,1,.67-.67h8a.67.67,0,0,1,.67.67A.66.66,0,0,1,415.14,378.36Z" transform="translate(-111.42 -324.67)"/><path class="cls-1" d="M484.58,370.48a4,4,0,0,1-1.7-.37,3.37,3.37,0,0,1-1.64-4.47,2.83,2.83,0,0,1,3.76-1.37.66.66,0,1,1-.57,1.2,1.5,1.5,0,0,0-2,.73,2,2,0,0,0,1,2.7,2.75,2.75,0,0,0,2.07.09,2.67,2.67,0,0,0,1.52-1.41,3.54,3.54,0,0,0-1.72-4.71,4.62,4.62,0,0,0-4.61.42,9.16,9.16,0,0,0-1.53,1.86.66.66,0,0,1-1.18-.61,5.84,5.84,0,0,1,2.09-2.43c2.33-2.05,6.66-4.15,13-.63a.66.66,0,1,1-.65,1.16c-3.31-1.83-6-2-8-1.44a5.69,5.69,0,0,1,1.47.46,4.89,4.89,0,0,1,2.37,6.49,4,4,0,0,1-2.27,2.09A4.24,4.24,0,0,1,484.58,370.48Z" transform="translate(-111.42 -324.67)"/><path class="cls-1" d="M499.91,370.73h-.12c-1.86-.33-5.23-1.16-6.87-3a4.91,4.91,0,0,1-1.18-3.39,9,9,0,0,1,.38-2.47.67.67,0,0,1,.53-.47c1.43-.24,4.08-.38,5.72,1.45h0c1.63,1.83,2.08,5.28,2.21,7.17a.67.67,0,0,1-.67.71Zm-6.62-8.07a7.33,7.33,0,0,0-.21,1.68,3.64,3.64,0,0,0,.83,2.5c1.18,1.32,3.67,2.05,5.26,2.4-.25-2.52-.89-4.49-1.79-5.5h0C496.3,362.54,494.49,362.51,493.29,362.66Z" transform="translate(-111.42 -324.67)"/><path class="cls-1" d="M487.94,378.36h-8a.67.67,0,1,1,0-1.33h8a.67.67,0,1,1,0,1.33Z" transform="translate(-111.42 -324.67)"/><path class="cls-1" d="M478.61,391.23a.68.68,0,0,1-.6-.37,12.64,12.64,0,0,1,1.11-13.16A12.66,12.66,0,0,1,478,364.53a.67.67,0,1,1,1.19.6,11.34,11.34,0,0,0,.79,11.5l.39-.41c5.08-5.07,15.24-3.6,20,1.16a.66.66,0,0,1,0,.94c-4.69,4.69-14.84,6-20,.85l-.39-.41a11.34,11.34,0,0,0-.79,11.5.67.67,0,0,1-.29.9A.66.66,0,0,1,478.61,391.23Zm2.22-13.53c.16.18.32.36.5.53,2.06,2.06,5.34,3.11,9,2.9a14.71,14.71,0,0,0,8.6-3.28,15.15,15.15,0,0,0-8.61-3.43c-3.68-.3-7,.7-9,2.74C481.15,377.34,481,377.51,480.83,377.7Z" transform="translate(-111.42 -324.67)"/><path class="cls-1" d="M486.59,395.8a9.77,9.77,0,0,1-6.49-2.5,5.85,5.85,0,0,1-2.11-2.45.66.66,0,0,1,1.18-.61,8.88,8.88,0,0,0,1.53,1.86,4.6,4.6,0,0,0,4.61.42,3.54,3.54,0,0,0,1.72-4.71,2.62,2.62,0,0,0-1.52-1.4,2.7,2.7,0,0,0-2.07.08,2,2,0,0,0-1,2.7,1.49,1.49,0,0,0,2,.73.67.67,0,0,1,.89.32.68.68,0,0,1-.32.89,2.84,2.84,0,0,1-3.76-1.37,3.36,3.36,0,0,1,1.64-4.47,4,4,0,0,1,3.09-.14,4,4,0,0,1,2.27,2.1,4.87,4.87,0,0,1-2.37,6.48,5.92,5.92,0,0,1-1.46.47c2,.54,4.71.38,8-1.45a.67.67,0,0,1,.91.26.66.66,0,0,1-.26.9A13.37,13.37,0,0,1,486.59,395.8Z" transform="translate(-111.42 -324.67)"/><path class="cls-1" d="M494.27,394.13a10.29,10.29,0,0,1-1.62-.14.66.66,0,0,1-.53-.47,9,9,0,0,1-.38-2.47,4.91,4.91,0,0,1,1.18-3.39c1.64-1.83,5-2.66,6.87-3a.73.73,0,0,1,.57.16.7.7,0,0,1,.22.54c-.13,1.89-.58,5.34-2.21,7.17h0A5.35,5.35,0,0,1,494.27,394.13Zm-1-1.39c1.2.15,3,.12,4.09-1.09.9-1,1.54-3,1.79-5.5-1.59.35-4.08,1.08-5.26,2.4a3.64,3.64,0,0,0-.83,2.5A7.49,7.49,0,0,0,493.29,392.74Zm4.59-.64Z" transform="translate(-111.42 -324.67)"/><path class="cls-1" d="M487.94,378.36h-8a.67.67,0,1,1,0-1.33h8a.67.67,0,1,1,0,1.33Z" transform="translate(-111.42 -324.67)"/><path class="cls-1" d="M469.51,356.41h0a.71.71,0,0,1-.49-.23l-.73-.83c-1.47-1.66-3.14-4.21-2.78-7a.06.06,0,0,1,0,0v-.12a13,13,0,0,1,1.45-3.68,17.72,17.72,0,0,0,1.47-3.43,16,16,0,0,0,.45-2.91l.17-2.7a.66.66,0,0,1,.47-.59.68.68,0,0,1,.72.22l1.67,2.14a23,23,0,0,1,2.18,3.31c3.11,5.78,1.49,9.67-.41,11.9-.19.22-.39.45-.58.65l0,0,0,0,0,0c-.85.78-1.69,1.62-2.25,2.2l-.77.79A.67.67,0,0,1,469.51,356.41Zm-2.68-7.93v0c-.3,2.3,1.17,4.51,2.46,6l.25.29.28-.28c.56-.59,1.42-1.45,2.3-2.25l0,0,.54-.61c1.64-1.92,3-5.29.26-10.4a22.13,22.13,0,0,0-2.06-3.13l-.59-.75-.06.95a17,17,0,0,1-.49,3.16,18.87,18.87,0,0,1-1.57,3.69,12,12,0,0,0-1.32,3.29Z" transform="translate(-111.42 -324.67)"/><path class="cls-1" d="M476.18,359.82c-2.61,0-5-1.71-6.25-2.82l-.84-.73a.7.7,0,0,1-.22-.49.66.66,0,0,1,.2-.49l.8-.78c.85-.82,1.58-1.56,2.18-2.22l0,0,0,0,0,0,.67-.6c2.23-1.9,6.1-3.52,11.86-.44a23.62,23.62,0,0,1,3.36,2.21l2.13,1.67a.67.67,0,0,1,.23.72.68.68,0,0,1-.6.47l-2.7.17a14.43,14.43,0,0,0-2.9.45,17.43,17.43,0,0,0-3.38,1.44h0a12.59,12.59,0,0,1-3.7,1.46A5.46,5.46,0,0,1,476.18,359.82Zm-5.66-4.08.29.26c1.23,1.08,3.65,2.82,6.07,2.44a12.52,12.52,0,0,0,3.3-1.33l0,0a18.85,18.85,0,0,1,3.64-1.54,16.2,16.2,0,0,1,3.16-.49l1-.06-.75-.59a21.42,21.42,0,0,0-3.16-2.08c-2.82-1.51-6.9-2.68-10.37.28-.2.16-.41.35-.64.56l0,0c-.62.68-1.37,1.44-2.23,2.28Z" transform="translate(-111.42 -324.67)"/><path class="cls-1" d="M483.44,351.94a.56.56,0,0,1-.25-.05.67.67,0,0,1-.36-.87c2.62-6.3,1.12-9.22,1.05-9.34l-.1-.18-.18-.1c-.13-.07-3-1.57-9.34,1.05a.68.68,0,0,1-.88-.36.67.67,0,0,1,.36-.87c6.77-2.82,10.13-1.19,10.49-1l.36.2a.64.64,0,0,1,.27.27l.19.36c.2.36,1.83,3.71-1,10.48A.67.67,0,0,1,483.44,351.94Z" transform="translate(-111.42 -324.67)"/><path class="cls-1" d="M472,354a.66.66,0,0,1-.47-1.13l7.73-7.74a.66.66,0,0,1,.94.94l-7.73,7.74A.66.66,0,0,1,472,354Z" transform="translate(-111.42 -324.67)"/><path class="cls-1" d="M483.63,338a.62.62,0,0,1-.29-.07h0a11.75,11.75,0,0,0-7.81-.46.65.65,0,0,1-.57-.09.68.68,0,0,1-.29-.49c0-.19-.5-4.77-6.14-6.54a.66.66,0,0,1-.44-.83.67.67,0,0,1,.84-.44c5.12,1.61,6.55,5.3,6.93,6.92a12.78,12.78,0,0,1,8.07.74.66.66,0,0,1,.3.89A.65.65,0,0,1,483.63,338Z" transform="translate(-111.42 -324.67)"/><path class="cls-1" d="M495.56,357.18a.66.66,0,0,1-.63-.47c-1.77-5.64-6.35-6.12-6.54-6.14a.67.67,0,0,1-.58-.86,11.7,11.7,0,0,0-.46-7.81.66.66,0,1,1,1.19-.59,12.78,12.78,0,0,1,.74,8.07c1.62.38,5.31,1.81,6.92,6.93a.66.66,0,0,1-.44.84A.64.64,0,0,1,495.56,357.18Z" transform="translate(-111.42 -324.67)"/><path class="cls-1" d="M425.4,420.55a.66.66,0,0,1-.52-.26l-1.67-2.13a23.69,23.69,0,0,1-2.19-3.32c-3.11-5.78-1.49-9.66.42-11.9.18-.22.38-.44.57-.65l0,0,0-.05,0,0c.85-.78,1.69-1.62,2.24-2.19l.77-.8a.65.65,0,0,1,.5-.2.64.64,0,0,1,.48.22l.74.83c1.46,1.66,3.13,4.21,2.77,7v0l0,.12a13.18,13.18,0,0,1-1.45,3.69,17.42,17.42,0,0,0-1.46,3.43,14.91,14.91,0,0,0-.46,2.9l-.16,2.7a.67.67,0,0,1-.67.63ZM423,403.18h0c-.18.19-.37.4-.55.61-1.64,1.92-3,5.29-.26,10.41a22.82,22.82,0,0,0,2.07,3.13l.59.75,0-1a16.08,16.08,0,0,1,.5-3.15,17.78,17.78,0,0,1,1.56-3.69,12.08,12.08,0,0,0,1.32-3.29l0-.08v0c.31-2.3-1.16-4.51-2.45-6l-.26-.3-.27.28c-.57.59-1.43,1.45-2.3,2.25Z" transform="translate(-111.42 -324.67)"/><path class="cls-1" d="M416.52,406a12.88,12.88,0,0,1-6.08-1.73,23.62,23.62,0,0,1-3.36-2.21L405,400.36a.67.67,0,0,1,.37-1.19L408,399a14.21,14.21,0,0,0,2.9-.45,17.75,17.75,0,0,0,3.38-1.43l0,0a12.87,12.87,0,0,1,3.7-1.46c3-.47,5.75,1.52,7.15,2.75l.84.74a.66.66,0,0,1,0,1l-.8.77c-.85.82-1.58,1.57-2.17,2.22l0,0,0,0,0,0c-.24.22-.46.42-.67.59A8.78,8.78,0,0,1,416.52,406Zm-9.36-5.58.75.59a21.8,21.8,0,0,0,3.16,2.09c2.81,1.5,6.9,2.68,10.37-.28l.63-.57,0,0c.61-.67,1.36-1.44,2.22-2.28l.29-.27-.3-.26c-1.22-1.07-3.64-2.82-6.06-2.43a12,12,0,0,0-3.3,1.32l0,0a19.27,19.27,0,0,1-3.65,1.53,16.1,16.1,0,0,1-3.15.49Z" transform="translate(-111.42 -324.67)"/><path class="cls-1" d="M414.26,415.81a7.24,7.24,0,0,1-3.36-.64l-.37-.2a.7.7,0,0,1-.27-.27l-.19-.36c-.19-.36-1.82-3.71,1-10.48a.67.67,0,0,1,1.23.51c-2.63,6.31-1.12,9.22-1.06,9.34l.1.19.19.1c.12.06,3,1.57,9.34-1.06a.67.67,0,1,1,.51,1.23A18.56,18.56,0,0,1,414.26,415.81Z" transform="translate(-111.42 -324.67)"/><path class="cls-1" d="M415.36,410.51a.67.67,0,0,1-.47-1.14l7.73-7.74a.67.67,0,0,1,.95.95l-7.74,7.73A.67.67,0,0,1,415.36,410.51Z" transform="translate(-111.42 -324.67)"/><path class="cls-1" d="M426.4,426.38a.64.64,0,0,1-.2,0c-5.13-1.61-6.55-5.3-6.94-6.92a12.78,12.78,0,0,1-8.07-.74.66.66,0,0,1,.59-1.19,11.65,11.65,0,0,0,7.82.46.65.65,0,0,1,.56.09.62.62,0,0,1,.29.49c0,.2.51,4.77,6.15,6.54a.67.67,0,0,1-.2,1.3Z" transform="translate(-111.42 -324.67)"/><path class="cls-1" d="M407.18,414.45a.66.66,0,0,1-.6-.37,12.84,12.84,0,0,1-.74-8.07c-1.62-.38-5.31-1.81-6.92-6.93a.67.67,0,0,1,1.28-.4c1.78,5.67,6.48,6.14,6.53,6.14a.72.72,0,0,1,.5.29.68.68,0,0,1,.08.57,11.54,11.54,0,0,0,.47,7.81.67.67,0,0,1-.31.89A.59.59,0,0,1,407.18,414.45Z" transform="translate(-111.42 -324.67)"/><path class="cls-1" d="M419,359.81a6.78,6.78,0,0,1-.77-.05h-.16a13.11,13.11,0,0,1-3.69-1.46,17.42,17.42,0,0,0-3.43-1.46,15.05,15.05,0,0,0-2.9-.45l-2.7-.17a.68.68,0,0,1-.6-.47A.67.67,0,0,1,405,355l2.13-1.67a24,24,0,0,1,3.32-2.19c5.78-3.11,9.66-1.49,11.9.42l.65.57,0,0,0,0,0,0c.79.85,1.63,1.69,2.2,2.24l.8.78a.66.66,0,0,1,.2.49.62.62,0,0,1-.22.48l-.83.74C423.71,358.31,421.47,359.81,419,359.81Zm-.65-1.38h0c2.3.31,4.51-1.16,6-2.45l.3-.26-.29-.27c-.58-.56-1.44-1.42-2.25-2.3l0,0c-.19-.18-.4-.37-.61-.54-1.93-1.64-5.29-3-10.41-.26a22.71,22.71,0,0,0-3.13,2.06l-.75.59.95.06a16.08,16.08,0,0,1,3.16.49,18.93,18.93,0,0,1,3.69,1.56,12.26,12.26,0,0,0,3.29,1.33Z" transform="translate(-111.42 -324.67)"/><path class="cls-1" d="M425.63,356.39a.67.67,0,0,1-.48-.2l-.77-.8c-.82-.85-1.57-1.58-2.22-2.18l0,0s0,0,0,0l0,0-.59-.67c-1.91-2.24-3.53-6.11-.44-11.87a23.25,23.25,0,0,1,2.21-3.35l1.67-2.13a.66.66,0,0,1,.72-.23.68.68,0,0,1,.47.6l.16,2.7a16,16,0,0,0,.45,2.9,18.36,18.36,0,0,0,1.44,3.38l0,0a13.09,13.09,0,0,1,1.46,3.7c.47,3-1.52,5.75-2.75,7.16l-.74.83a.65.65,0,0,1-.48.23Zm-2.58-4.17h0c.67.61,1.44,1.36,2.27,2.23l.28.28.26-.29c1.07-1.23,2.82-3.65,2.43-6.07a12,12,0,0,0-1.32-3.29l0,0a18.21,18.21,0,0,1-1.53-3.64,16.19,16.19,0,0,1-.5-3.16l-.06-.95-.58.75a22.36,22.36,0,0,0-2.09,3.16c-1.5,2.82-2.68,6.9.28,10.37l.56.63Z" transform="translate(-111.42 -324.67)"/><path class="cls-1" d="M411.7,351.93a.66.66,0,0,1-.61-.41c-2.82-6.77-1.2-10.13-1-10.49l.19-.36a.7.7,0,0,1,.27-.27l.37-.2c.36-.19,3.72-1.82,10.48,1a.67.67,0,1,1-.51,1.23c-6.3-2.62-9.22-1.12-9.34-1.05l-.19.1-.1.18c-.06.12-1.57,3,1.06,9.34a.67.67,0,0,1-.36.87A.62.62,0,0,1,411.7,351.93Z" transform="translate(-111.42 -324.67)"/><path class="cls-1" d="M423.15,353.9a.67.67,0,0,1-.47-.2L415,346a.68.68,0,0,1,0-1,.66.66,0,0,1,.94,0l7.73,7.74a.67.67,0,0,1-.47,1.14Z" transform="translate(-111.42 -324.67)"/><path class="cls-1" d="M399.54,357.2l-.2,0a.67.67,0,0,1-.43-.84c1.61-5.12,5.3-6.55,6.91-6.93a12.92,12.92,0,0,1,.74-8.07.67.67,0,0,1,1.2.59h0a11.6,11.6,0,0,0-.46,7.81.72.72,0,0,1-.09.57.7.7,0,0,1-.5.29c-.19,0-4.76.5-6.53,6.14A.66.66,0,0,1,399.54,357.2Z" transform="translate(-111.42 -324.67)"/><path class="cls-1" d="M411.47,338a.69.69,0,0,1-.6-.37.67.67,0,0,1,.31-.89,12.73,12.73,0,0,1,8.06-.74,9.65,9.65,0,0,1,6.94-6.92.67.67,0,1,1,.4,1.27c-5.64,1.77-6.13,6.34-6.14,6.54a.66.66,0,0,1-.3.49.65.65,0,0,1-.56.09,11.6,11.6,0,0,0-7.81.46A.66.66,0,0,1,411.47,338Z" transform="translate(-111.42 -324.67)"/><path class="cls-1" d="M478.58,406a8.78,8.78,0,0,1-5.78-2.17l-.64-.57,0,0,0,0,0,0c-.78-.85-1.63-1.69-2.2-2.24l-.8-.77a.7.7,0,0,1-.2-.5.69.69,0,0,1,.23-.48l.83-.74c1.65-1.46,4.21-3.13,7-2.78H477l.11,0a13.07,13.07,0,0,1,3.69,1.45,17.68,17.68,0,0,0,3.43,1.46,14.43,14.43,0,0,0,2.9.45l2.71.17a.68.68,0,0,1,.59.47.66.66,0,0,1-.23.72L488,402.05a23.42,23.42,0,0,1-3.32,2.19A13,13,0,0,1,478.58,406ZM473,402.25l0,0,.61.54c1.92,1.63,5.29,3,10.4.26A22.23,22.23,0,0,0,487.2,401l.75-.59-.95-.06a16.2,16.2,0,0,1-3.16-.49,18.84,18.84,0,0,1-3.69-1.56,12.47,12.47,0,0,0-3.29-1.33h-.1c-2.3-.31-4.52,1.16-6,2.45l-.29.26.28.27c.58.57,1.45,1.42,2.25,2.3Z" transform="translate(-111.42 -324.67)"/><path class="cls-1" d="M469.7,420.56a.63.63,0,0,1-.19,0,.66.66,0,0,1-.47-.59l-.17-2.7a15.16,15.16,0,0,0-.45-2.91A17.35,17.35,0,0,0,467,411l0,0a13.16,13.16,0,0,1-1.46-3.7c-.47-3,1.53-5.75,2.76-7.15l.73-.84a.69.69,0,0,1,.49-.23.67.67,0,0,1,.49.21l.78.8c.82.84,1.56,1.57,2.22,2.17l0,0,0,0,0,0c.22.23.42.46.6.67,1.9,2.23,3.52,6.1.44,11.86a23,23,0,0,1-2.21,3.35l-1.67,2.13A.65.65,0,0,1,469.7,420.56Zm-.18-19.91-.26.3c-1.08,1.22-2.83,3.64-2.44,6.06a12.39,12.39,0,0,0,1.33,3.3l0,0a18.85,18.85,0,0,1,1.54,3.64,16.32,16.32,0,0,1,.49,3.16l.06,1,.59-.75a22.25,22.25,0,0,0,2.08-3.16c1.51-2.81,2.68-6.9-.28-10.37-.16-.19-.35-.41-.56-.63l0,0c-.68-.61-1.44-1.36-2.28-2.23Z" transform="translate(-111.42 -324.67)"/><path class="cls-1" d="M480.85,415.83a18.52,18.52,0,0,1-7.12-1.64.66.66,0,0,1-.36-.87.67.67,0,0,1,.87-.36c6.3,2.62,9.22,1.12,9.34,1.06l.18-.1.1-.19c.07-.12,1.58-3-1.05-9.34a.67.67,0,0,1,1.23-.51c2.82,6.77,1.19,10.12,1,10.48l-.19.36a.64.64,0,0,1-.27.27l-.36.2A7.48,7.48,0,0,1,480.85,415.83Z" transform="translate(-111.42 -324.67)"/><path class="cls-1" d="M479.7,410.56a.66.66,0,0,1-.47-.19l-7.73-7.73a.68.68,0,0,1,0-.95.66.66,0,0,1,.94,0l7.74,7.74a.66.66,0,0,1-.48,1.13Z" transform="translate(-111.42 -324.67)"/><path class="cls-1" d="M488,414.44a.73.73,0,0,1-.29-.07.68.68,0,0,1-.31-.9h0a11.64,11.64,0,0,0,.47-7.81.65.65,0,0,1,.08-.56.66.66,0,0,1,.5-.29c.19,0,4.76-.51,6.54-6.15a.67.67,0,0,1,1.27.4A9.65,9.65,0,0,1,489.3,406a12.73,12.73,0,0,1-.74,8.06A.67.67,0,0,1,488,414.44Z" transform="translate(-111.42 -324.67)"/><path class="cls-1" d="M468.74,426.36a.65.65,0,0,1-.63-.46.67.67,0,0,1,.43-.84c5.64-1.77,6.13-6.34,6.15-6.54A.65.65,0,0,1,475,418a.67.67,0,0,1,.57-.08,11.66,11.66,0,0,0,7.81-.47.66.66,0,0,1,.89.3.68.68,0,0,1-.3.9,12.94,12.94,0,0,1-8.07.74,9.62,9.62,0,0,1-6.94,6.91A.44.44,0,0,1,468.74,426.36Z" transform="translate(-111.42 -324.67)"/><path class="cls-1" d="M453.41,354.92a5.84,5.84,0,0,1-4.14-1.71.66.66,0,0,1,.94-.94,4.53,4.53,0,0,0,6.39,0,.66.66,0,0,1,.94.94A5.83,5.83,0,0,1,453.41,354.92Z" transform="translate(-111.42 -324.67)"/><path class="cls-1" d="M442.17,354.92a5.84,5.84,0,0,1-4.14-1.71.66.66,0,0,1,.94-.94,4.53,4.53,0,0,0,6.39,0,.66.66,0,0,1,.94.94A5.83,5.83,0,0,1,442.17,354.92Z" transform="translate(-111.42 -324.67)"/><path class="cls-1" d="M458.92,359.87a5.83,5.83,0,0,1-4.13-1.71.68.68,0,0,1,0-1,.66.66,0,0,1,.94,0,4.53,4.53,0,0,0,6.39,0,.66.66,0,0,1,.94,0,.68.68,0,0,1,0,1A5.84,5.84,0,0,1,458.92,359.87Z" transform="translate(-111.42 -324.67)"/><path class="cls-1" d="M447.79,359.87a5.83,5.83,0,0,1-4.13-1.71.68.68,0,0,1,0-1,.66.66,0,0,1,.94,0,4.51,4.51,0,0,0,6.38,0,.67.67,0,1,1,.95,1A5.84,5.84,0,0,1,447.79,359.87Z" transform="translate(-111.42 -324.67)"/><path class="cls-1" d="M436.66,359.87a5.81,5.81,0,0,1-4.13-1.71.68.68,0,0,1,0-1,.66.66,0,0,1,.94,0,4.51,4.51,0,0,0,6.38,0,.67.67,0,1,1,.95,1A5.84,5.84,0,0,1,436.66,359.87Z" transform="translate(-111.42 -324.67)"/><path class="cls-1" d="M464.58,364.83a5.83,5.83,0,0,1-4.13-1.71.66.66,0,1,1,.94-.94,4.53,4.53,0,0,0,6.39,0,.66.66,0,1,1,.94.94A5.84,5.84,0,0,1,464.58,364.83Z" transform="translate(-111.42 -324.67)"/><path class="cls-1" d="M431.13,364.83a5.81,5.81,0,0,1-4.13-1.71.66.66,0,0,1,.94-.94,4.51,4.51,0,0,0,6.38,0,.66.66,0,0,1,.94.94A5.81,5.81,0,0,1,431.13,364.83Z" transform="translate(-111.42 -324.67)"/><path class="cls-1" d="M469.67,369.74a5.84,5.84,0,0,1-4.14-1.71.67.67,0,1,1,1-.95,4.51,4.51,0,0,0,6.38,0,.66.66,0,0,1,.94,0,.68.68,0,0,1,0,.95A5.83,5.83,0,0,1,469.67,369.74Z" transform="translate(-111.42 -324.67)"/><path class="cls-1" d="M425.43,369.74A5.81,5.81,0,0,1,421.3,368a.68.68,0,0,1,0-.95.66.66,0,0,1,.94,0,4.51,4.51,0,0,0,6.38,0,.66.66,0,0,1,.94,0,.68.68,0,0,1,0,.95A5.81,5.81,0,0,1,425.43,369.74Z" transform="translate(-111.42 -324.67)"/><path class="cls-1" d="M464.58,374.64a5.83,5.83,0,0,1-4.13-1.71.68.68,0,0,1,0-.95.66.66,0,0,1,.94,0,4.53,4.53,0,0,0,6.39,0,.66.66,0,0,1,.94,0,.68.68,0,0,1,0,.95A5.84,5.84,0,0,1,464.58,374.64Z" transform="translate(-111.42 -324.67)"/><path class="cls-1" d="M431.13,374.64a5.81,5.81,0,0,1-4.13-1.71.68.68,0,0,1,0-.95.66.66,0,0,1,.94,0,4.51,4.51,0,0,0,6.38,0,.66.66,0,0,1,.94,0,.68.68,0,0,1,0,.95A5.81,5.81,0,0,1,431.13,374.64Z" transform="translate(-111.42 -324.67)"/><path class="cls-1" d="M469.67,379.46a5.84,5.84,0,0,1-4.14-1.71.66.66,0,0,1,0-.94.68.68,0,0,1,1,0,4.51,4.51,0,0,0,6.38,0,.66.66,0,1,1,.94.94A5.83,5.83,0,0,1,469.67,379.46Z" transform="translate(-111.42 -324.67)"/><path class="cls-1" d="M425.43,379.46a5.81,5.81,0,0,1-4.13-1.71.66.66,0,1,1,.94-.94,4.51,4.51,0,0,0,6.38,0,.66.66,0,1,1,.94.94A5.81,5.81,0,0,1,425.43,379.46Z" transform="translate(-111.42 -324.67)"/><path class="cls-1" d="M464.58,393.63a5.83,5.83,0,0,1-4.13-1.71.66.66,0,0,1,.94-.94,4.53,4.53,0,0,0,6.39,0,.66.66,0,0,1,.94.94A5.84,5.84,0,0,1,464.58,393.63Z" transform="translate(-111.42 -324.67)"/><path class="cls-1" d="M431.13,393.63a5.81,5.81,0,0,1-4.13-1.71.66.66,0,0,1,.94-.94,4.51,4.51,0,0,0,6.38,0,.66.66,0,0,1,.94.94A5.81,5.81,0,0,1,431.13,393.63Z" transform="translate(-111.42 -324.67)"/><path class="cls-1" d="M442.17,393.63a5.84,5.84,0,0,1-4.14-1.71A.66.66,0,0,1,439,391a4.53,4.53,0,0,0,6.39,0,.66.66,0,0,1,.94.94A5.83,5.83,0,0,1,442.17,393.63Z" transform="translate(-111.42 -324.67)"/><path class="cls-1" d="M453.41,393.63a5.84,5.84,0,0,1-4.14-1.71.66.66,0,0,1,.94-.94,4.53,4.53,0,0,0,6.39,0,.66.66,0,0,1,.94.94A5.83,5.83,0,0,1,453.41,393.63Z" transform="translate(-111.42 -324.67)"/><path class="cls-1" d="M442.17,403.31A5.84,5.84,0,0,1,438,401.6a.66.66,0,1,1,.94-.94,4.53,4.53,0,0,0,6.39,0,.66.66,0,1,1,.94.94A5.83,5.83,0,0,1,442.17,403.31Z" transform="translate(-111.42 -324.67)"/><path class="cls-1" d="M453.41,403.31a5.84,5.84,0,0,1-4.14-1.71.66.66,0,0,1,.94-.94,4.53,4.53,0,0,0,6.39,0,.66.66,0,1,1,.94.94A5.83,5.83,0,0,1,453.41,403.31Z" transform="translate(-111.42 -324.67)"/><path class="cls-1" d="M469.67,388.88a5.84,5.84,0,0,1-4.14-1.71.67.67,0,0,1,1-.95,4.51,4.51,0,0,0,6.38,0,.66.66,0,0,1,.94,0,.68.68,0,0,1,0,.95A5.83,5.83,0,0,1,469.67,388.88Z" transform="translate(-111.42 -324.67)"/><path class="cls-1" d="M436.71,388.86a5.88,5.88,0,0,1-4.18-1.69.68.68,0,0,1,0-.95.66.66,0,0,1,.94,0,4.68,4.68,0,0,0,6.54,0,.66.66,0,0,1,.94,0,.68.68,0,0,1,0,.95A6,6,0,0,1,436.71,388.86Z" transform="translate(-111.42 -324.67)"/><path class="cls-1" d="M425.43,388.88a5.81,5.81,0,0,1-4.13-1.71.68.68,0,0,1,0-.95.66.66,0,0,1,.94,0,4.51,4.51,0,0,0,6.38,0,.66.66,0,0,1,.94,0,.68.68,0,0,1,0,.95A5.81,5.81,0,0,1,425.43,388.88Z" transform="translate(-111.42 -324.67)"/><path class="cls-1" d="M459.08,388.86a5.78,5.78,0,0,1-4.1-1.72.68.68,0,0,1,0-.95.66.66,0,0,1,.94,0,4.37,4.37,0,0,0,6.26,0,.66.66,0,0,1,.94,0,.68.68,0,0,1,0,.95A5.68,5.68,0,0,1,459.08,388.86Z" transform="translate(-111.42 -324.67)"/><path class="cls-1" d="M436.66,398.46a5.81,5.81,0,0,1-4.13-1.71.66.66,0,1,1,.94-.94,4.51,4.51,0,0,0,6.38,0,.68.68,0,0,1,.95,0,.66.66,0,0,1,0,.94A5.84,5.84,0,0,1,436.66,398.46Z" transform="translate(-111.42 -324.67)"/><path class="cls-1" d="M447.8,398.46a5.81,5.81,0,0,1-4.13-1.71.66.66,0,1,1,.94-.94,4.51,4.51,0,0,0,6.38,0,.68.68,0,0,1,.95,0,.66.66,0,0,1,0,.94A5.84,5.84,0,0,1,447.8,398.46Z" transform="translate(-111.42 -324.67)"/><path class="cls-1" d="M458.92,398.46a5.83,5.83,0,0,1-4.13-1.71.66.66,0,1,1,.94-.94,4.53,4.53,0,0,0,6.39,0,.66.66,0,1,1,.94.94A5.84,5.84,0,0,1,458.92,398.46Z" transform="translate(-111.42 -324.67)"/><path class="cls-1" d="M442.62,391a.64.64,0,0,1-.35-.1.67.67,0,0,1-.21-.92c3-4.9,6.07-6.73,8.36-7.77,2.9-1.32,6.36-1.15,9.09-.65a12.78,12.78,0,0,0-7.14-1.46c-3.58.4-7.21,2.64-11.41,7a.66.66,0,1,1-1-.92c4.43-4.64,8.31-7,12.23-7.44,3.7-.41,7.57.92,12.17,4.19a.66.66,0,0,1,.2.86.67.67,0,0,1-.84.3c-.07,0-7.62-3.06-12.79-.71-2.25,1-4.94,2.69-7.78,7.26A.67.67,0,0,1,442.62,391Z" transform="translate(-111.42 -324.67)"/><path class="cls-1" d="M453.31,391a.67.67,0,0,1-.57-.32,18.46,18.46,0,0,0-5.15-5.81.67.67,0,0,1-.18-.93.68.68,0,0,1,.93-.18,19.79,19.79,0,0,1,5.53,6.22.67.67,0,0,1-.21.92A.64.64,0,0,1,453.31,391Z" transform="translate(-111.42 -324.67)"/><path class="cls-1" d="M431.92,384.16a.67.67,0,0,1-.59-.35.66.66,0,0,1,.2-.86c6.45-4.59,11.46-5.43,16.73-2.8a.66.66,0,1,1-.59,1.19c-3.62-1.8-7.13-1.77-11.24.2a15.68,15.68,0,0,1,8.74.5.67.67,0,0,1-.51,1.23c-5.15-2.1-12.42.81-12.49.84A.79.79,0,0,1,431.92,384.16Z" transform="translate(-111.42 -324.67)"/><path class="cls-1" d="M455.45,387.33a.66.66,0,0,1-.48-.21,35.54,35.54,0,0,0-4.35-3.93.67.67,0,0,1-.14-.94.68.68,0,0,1,.94-.13,36.68,36.68,0,0,1,4.51,4.08.66.66,0,0,1-.48,1.13Z" transform="translate(-111.42 -324.67)"/><path class="cls-1" d="M447.92,369.91a.65.65,0,0,1-.57-.33c-2-3.48-6.82-4.93-10-3.05a.67.67,0,0,1-.67-1.15c3.89-2.27,9.43-.63,11.86,3.53a.67.67,0,0,1-.24.91A.69.69,0,0,1,447.92,369.91Z" transform="translate(-111.42 -324.67)"/><path class="cls-1" d="M437.79,371.88a.62.62,0,0,1-.32-.09.67.67,0,0,1-.26-.91,7.9,7.9,0,0,1,4.88-3.82,8.31,8.31,0,0,1,6.16.9.67.67,0,0,1,.25.91.66.66,0,0,1-.91.25,6.93,6.93,0,0,0-5.17-.76,6.48,6.48,0,0,0-4,3.18A.68.68,0,0,1,437.79,371.88Z" transform="translate(-111.42 -324.67)"/><path class="cls-1" d="M448,370.53h0a.66.66,0,0,1-.66-.67,7,7,0,0,0-1.57-4.76,5.8,5.8,0,0,0-4.46-1.83.67.67,0,0,1,0-1.34h0a7.16,7.16,0,0,1,5.44,2.28,8.21,8.21,0,0,1,1.91,5.66A.66.66,0,0,1,448,370.53Z" transform="translate(-111.42 -324.67)"/><path class="cls-1" d="M440.6,377.32a.66.66,0,0,1-.66-.64,8.39,8.39,0,0,1,8-8.8.67.67,0,1,1,.05,1.33,7.06,7.06,0,0,0-6.68,7.42.67.67,0,0,1-.64.69Z" transform="translate(-111.42 -324.67)"/><path class="cls-1" d="M448,369.91a.66.66,0,0,1-.57-1c2.42-4.16,8-5.8,11.86-3.53a.67.67,0,0,1,.24.91.66.66,0,0,1-.91.24c-3.23-1.88-8-.43-10,3.05A.67.67,0,0,1,448,369.91Z" transform="translate(-111.42 -324.67)"/><path class="cls-1" d="M458.15,371.88a.66.66,0,0,1-.58-.34,6.48,6.48,0,0,0-4-3.18,7,7,0,0,0-5.18.76.66.66,0,0,1-.91-.25.67.67,0,0,1,.26-.91,8.3,8.3,0,0,1,6.16-.9,7.85,7.85,0,0,1,4.87,3.82.67.67,0,0,1-.25.91A.66.66,0,0,1,458.15,371.88Z" transform="translate(-111.42 -324.67)"/><path class="cls-1" d="M448,370.53a.67.67,0,0,1-.67-.66c0-4.79,2.86-7.9,7.36-7.94h0a.67.67,0,0,1,0,1.34c-3.75,0-6.06,2.55-6,6.59a.67.67,0,0,1-.67.67Z" transform="translate(-111.42 -324.67)"/><path class="cls-1" d="M455.35,377.32h0a.67.67,0,0,1-.64-.69,7.16,7.16,0,0,0-1.84-5.11,6.77,6.77,0,0,0-4.84-2.31.67.67,0,0,1,.05-1.33,8.15,8.15,0,0,1,5.79,2.75,8.5,8.5,0,0,1,2.17,6.05A.66.66,0,0,1,455.35,377.32Z" transform="translate(-111.42 -324.67)"/><path class="cls-1" d="M448,379.53a.66.66,0,0,1-.66-.66v-13a.67.67,0,0,1,1.33,0v13A.66.66,0,0,1,448,379.53Z" transform="translate(-111.42 -324.67)"/></svg>