<?xml version="1.0" encoding="utf-8"?>
<!-- Generator: Adobe Illustrator 25.0.0, SVG Export Plug-In . SVG Version: 6.00 Build 0)  -->
<svg version="1.1" id="Layer_1" xmlns="http://www.w3.org/2000/svg" xmlns:xlink="http://www.w3.org/1999/xlink" x="0px" y="0px"
	 viewBox="0 0 973.4 245.1" style="enable-background:new 0 0 973.4 245.1;" xml:space="preserve">
<style type="text/css">
	.st0{fill:#FF2E64;}
	.st1{fill:#FFFFFF;}
</style>
<g>
	<g>
		<path class="st0" d="M855.2,205.5c-2.7,0-5.4-1-7.5-3.1c-0.5-0.4-30.3-28.8-85.3-39.3c-14.7-2.8-25.4-15.6-25.4-30.5V10.7
			c0-3.1,1.3-6.1,3.7-8.1c2.3-2,5.5-2.9,8.5-2.5c3,0.4,69.3,10.2,105.9,42.3C891.9,10.3,958.1,0.5,961.1,0.1
			c3.1-0.4,6.2,0.5,8.5,2.5c2.3,2,3.7,5,3.7,8.1v128.5c0,10.8-5.6,20.7-14.8,26.5c-51.1,31.5-90.9,20.2-111.2-0.9
			c-1.9-2-3-4.7-3-7.4v-31.8c0-5.9,4.8-10.7,10.7-10.7s10.7,4.8,10.7,10.7v27.2c22.2,19.3,56.2,10.2,81.5-5.4
			c2.9-1.8,4.7-4.9,4.7-8.2V23.6c-21.8,4.6-67.2,16.6-88.7,41c-2,2.3-5,3.6-8,3.6s-6-1.3-8-3.6c-21.4-24.4-66.8-36.4-88.7-41v109
			c0,4.6,3.3,8.5,7.9,9.4c61.9,11.8,94.9,43.7,96.3,45.1c4.2,4.1,4.3,10.9,0.1,15.2C860.8,204.4,858,205.5,855.2,205.5z"/>
	</g>
	<g>
		<g>
			<path class="st1" d="M655.8,65.1c-1.6,0.9-2.6,2.5-2.6,4.4v47.2c0,14.3-6.5,20.9-20.4,20.9h-11c-13.8,0-20.2-6.6-20.2-20.9V61.2
				c0-3.7-4-6.1-7.3-4.4l-15.5,8.3c-1.6,0.9-2.6,2.5-2.6,4.4v47.2c0,14.3-6.5,20.9-20.4,20.9h-10.8c-13.9,0-20.4-6.6-20.4-20.9V61.2
				c0-3.7-4-6.1-7.3-4.4l-15.5,8.3c-1.6,0.9-2.6,2.5-2.6,4.4v47.2c0,14.3-6.4,20.9-20.2,20.9l-66.8,0c-0.1,0-0.2-0.1-0.1-0.2
				c6.3-5.8,16.8-21.7,23.5-32.4c3.9-6.2,3.8-14.2-0.4-20.2c-6.3-9.1-13.4-18.6-21.2-23.3c-21.7-13.1-44-13.1-65.5-0.1
				c-6.3,3.8-14.8,14.6-20.7,22.9c-4.3,6.1-4.5,14.1-0.6,20.4c7.9,12.6,15.7,25.5,23.3,32.7c0.1,0.1,0,0.2-0.1,0.2l-83.5,0
				c-0.1,0-0.2-0.1-0.1-0.2c7.7-10.4,11.6-21.8,11.6-34.1c0-13.8-3.6-25.5-10.6-34.7c-8.5-11.3-20.6-17-36.1-17
				c-13.5,0-24.6,4.5-32.9,13.3c-9,9.5-13.6,22.5-13.6,38.4c0,12.3,3.9,23.7,11.6,34.1c0.1,0.1,0,0.2-0.1,0.2h-50.2h-17.6h-16.8
				c-3.2,0-6.1,1.8-7.6,4.6l-3.6,6.9c-1.3,2.6-1.5,5.8-0.1,8.3c1.5,2.7,4.3,4.4,7.4,4.4l10.2,0c0.1,0,0.2,0.1,0.1,0.2
				c-2.3,5.8-6.8,10.5-13.6,14.2c-8.4,4.5-19.2,6.7-32.1,6.7c-15.2,0-27.2-3.8-35.7-11.3c-8.6-7.5-12.7-17.7-12.7-31
				c0-9.2,1.9-18,5.7-26.3c1.1-2.5,0.8-5.3-1-7.5c-1.8-2.2-4.5-3.2-7.2-2.6l-7.7,1.7c-1.9,0.4-3.5,1.5-4.6,3.1
				C3.1,118.6,0,129.9,0,142.8c0,16.2,4.9,30.1,14.5,41.2c13,14.9,32.5,22.5,57.9,22.5c19.8,0,36.4-4,49.3-11.9
				c13.4-8.2,21.3-19.3,23.5-32.8h1h69.3c6.2,0,11.5-0.5,16-1.6c0,0,0,0,0.1,0c4.6,1,9.9,1.6,15.9,1.6h108.4
				c8.6,0,17.1-1.6,25.3-4.7c0,0,0.1,0,0.1,0c8.2,3.1,16.7,4.7,25.1,4.7H481c13.2,0,23.5-4.1,30.7-12.2c0.1-0.1,0.1-0.1,0.2,0
				c7.4,8.1,17.7,12.2,30.6,12.2h16.2c12.7-0.1,22.8-4.3,29.9-12.2c0.1-0.1,0.1-0.1,0.2,0c7.2,8.1,17.5,12.2,30.7,12.2h16.2
				c12.4-0.2,22.5-4,29.9-11.3c8.5-8,12.8-19.1,12.8-33.1V61.2c0-3.7-4-6.1-7.3-4.4L655.8,65.1z M408.3,106.5
				c-9.6,11.4-18.6,19.5-26.9,24.2c0,0-0.1,0-0.1,0c-8.4-4.7-17.5-12.8-27.1-24.2c-5.9-7-4.7-17.8,2.9-23.1
				c7.5-5.3,15.5-7.9,24.1-7.9c8.5,0.1,16.6,2.7,24.2,7.8C412.9,88.4,414.3,99.4,408.3,106.5z M213.5,82.7
				c4.5-4.8,10.3-7.1,17.9-7.1c7.6,0,13.5,2.3,17.9,7c4.5,4.7,6.8,11.4,6.8,19.8c0,7.4-2.4,14.3-7.1,20.5
				c-4.5,5.9-10.3,10.1-17.3,12.4c0,0-0.1,0-0.1,0c-7-2.4-12.9-6.6-17.6-12.6c-4.9-6.3-7.4-13.1-7.4-20.4
				C206.7,94.1,209,87.5,213.5,82.7z"/>
		</g>
		<path class="st1" d="M231.9,29.9c8.9,0,13.9-5.1,13.9-14.3c0-9.1-4.9-14.1-13.9-14.1c-9.1,0-14.1,5-14.1,14.1
			C217.8,24.8,222.8,29.9,231.9,29.9z"/>
		<path class="st1" d="M380.8,28.4c8.9,0,13.9-5.1,13.9-14.3C394.7,5,389.7,0,380.8,0c-9.1,0-14.1,5-14.1,14.1
			C366.7,23.4,371.7,28.4,380.8,28.4z"/>
		<path class="st1" d="M548.6,28.4c8.9,0,13.9-5.1,13.9-14.3C562.5,5,557.6,0,548.6,0c-9.1,0-14.1,5-14.1,14.1
			C534.5,23.4,539.5,28.4,548.6,28.4z"/>
		<path class="st1" d="M589,28.4c8.9,0,13.9-5.1,13.9-14.3C602.9,5,598,0,589,0c-9.1,0-14.1,5-14.1,14.1
			C574.9,23.4,579.9,28.4,589,28.4z"/>
		<path class="st1" d="M629.3,28.4c8.9,0,13.9-5.1,13.9-14.3C643.1,5,638.2,0,629.3,0c-9.1,0-14.1,5-14.1,14.1
			C615.2,23.4,620.2,28.4,629.3,28.4z"/>
		<g>
			<g>
				<path class="st1" d="M52.5,245.1c8.9,0,13.9-5.1,13.9-14.3c0-9.1-4.9-14.1-13.9-14.1c-9.1,0-14.1,5-14.1,14.1
					C38.4,240,43.4,245.1,52.5,245.1z"/>
				<path class="st1" d="M92.9,245.1c8.9,0,13.9-5.1,13.9-14.3c0-9.1-4.9-14.1-13.9-14.1c-9.1,0-14.1,5-14.1,14.1
					C78.8,240,83.8,245.1,92.9,245.1z"/>
			</g>
		</g>
	</g>
</g>
</svg>
